<?xml version="1.0" standalone="no"?><!DOCTYPE svg PUBLIC "-//W3C//DTD SVG 1.1//EN" "http://www.w3.org/Graphics/SVG/1.1/DTD/svg11.dtd"><svg t="1766978473567" class="icon" viewBox="0 0 1024 1024" version="1.1" xmlns="http://www.w3.org/2000/svg" p-id="32470" xmlns:xlink="http://www.w3.org/1999/xlink" width="200" height="200"><path d="M789.333333 960H234.666667a64 64 0 0 1-64-64V128a64 64 0 0 1 64-64h405.333333l213.333333 213.333333v618.666667a64 64 0 0 1-64 64z" fill="#2196F3" p-id="32471"></path><path d="M853.333333 277.333333H640V64z" fill="#BBDEFB" p-id="32472"></path><path d="M640 277.333333l213.333333 213.333334V277.333333z" fill="#1565C0" p-id="32473"></path><path d="M320 490.666667h384v42.666666H320z m0 85.333333h384v42.666667H320z m0 85.333333h384v42.666667H320z m0 85.333334h213.333333v42.666666H320z" fill="#E3F2FD" p-id="32474"></path></svg>