<?xml version="1.0" standalone="no"?><!DOCTYPE svg PUBLIC "-//W3C//DTD SVG 1.1//EN" "http://www.w3.org/Graphics/SVG/1.1/DTD/svg11.dtd"><svg t="1766978417051" class="icon" viewBox="0 0 1137 1024" version="1.1" xmlns="http://www.w3.org/2000/svg" p-id="30007" xmlns:xlink="http://www.w3.org/1999/xlink" width="222.0703125" height="200"><path d="M86.015745 874.572295l50.175851 87.039742c10.429599 18.318168 25.410295 32.692051 43.007873 43.159576C229.602875 940.56321 264.722179 891.297578 284.443602 856.936791c20.062755-34.853823 44.714534-89.353217 73.955336-163.536108-78.809841-10.391673-138.542997-15.625435-179.199469-15.625435-38.987736 0-98.720893 5.233762-179.199469 15.625435 0 20.29031 5.195836 40.580621 15.625435 58.860863l70.39031 122.348674z" fill="#0066DA" p-id="30008"></path><path d="M958.537012 1004.771613c17.597577-10.467525 32.6162-24.841408 43.007872-43.159576l20.859198-35.991597 99.744889-173.320968c10.202044-17.93891 15.587509-38.22922 15.58751-58.898789-80.933686-10.391673-140.553065-15.625435-178.858137-15.625435-41.187434 0-100.806812 5.233762-178.896062 15.625435 28.89947 74.600075 53.247842 129.099469 73.007191 163.536108 19.911052 34.740045 55.106207 84.043603 105.547539 147.834822z" fill="#EA4335" p-id="30009"></path><path d="M568.887203 327.07525c58.329901-70.693716 98.531264-125.193111 120.604087-163.536108 17.749281-30.871612 37.281075-80.137244 58.633308-147.834821A114.23255 114.23255 0 0 0 689.453365 0.003034h-241.094397a120.983345 120.983345 0 0 0-58.671234 15.701287c27.154883 77.63414 50.175851 132.892051 69.100833 165.735805 20.897123 36.332929 57.647237 84.877971 110.136562 145.635124z" fill="#00832D" p-id="30010"></path><path d="M779.375469 693.400683H358.398938l-179.199469 311.37093c17.559652 10.467525 37.77411 15.701287 58.633308 15.701286h662.070927c20.859197 0 41.073656-5.878501 58.633308-15.701286l-179.199469-311.37093z" fill="#2684FC" p-id="30011"></path><path d="M568.887203 327.07525L389.687734 15.704321c-17.597577 10.467525-32.6162 24.879334-43.007872 43.197502L15.625435 634.501895A118.897425 118.897425 0 0 0 0 693.400683h358.398938L568.887203 327.07525z" fill="#00AC47" p-id="30012"></path><path d="M956.602795 346.720822l-165.50825-287.856925A118.518167 118.518167 0 0 0 748.086672 15.704321L568.887203 327.07525l210.488266 366.363359h357.754199c0-20.328236-5.233762-40.580621-15.663361-58.898788l-164.863512-287.856925z" fill="#FFBA00" p-id="30013"></path></svg>