<?xml version="1.0" standalone="no"?><!DOCTYPE svg PUBLIC "-//W3C//DTD SVG 1.1//EN" "http://www.w3.org/Graphics/SVG/1.1/DTD/svg11.dtd"><svg t="1767062803525" class="icon" viewBox="0 0 1024 1024" version="1.1" xmlns="http://www.w3.org/2000/svg" p-id="31503" xmlns:xlink="http://www.w3.org/1999/xlink" width="200" height="200"><path d="M512 960c247.424 0 448-200.576 448-448S759.424 64 512 64 64 264.576 64 512s200.576 448 448 448z" fill="#FF0000" p-id="31504"></path><path d="M512 307.68A204.544 204.544 0 0 1 716.32 512 204.544 204.544 0 0 1 512 716.32 204.544 204.544 0 0 1 307.68 512 204.544 204.544 0 0 1 512 307.68z m0-19.68a224 224 0 0 0-224 224 224 224 0 0 0 224 224 224 224 0 0 0 224-224 224 224 0 0 0-224-224z" fill="#FFFFFF" p-id="31505"></path><path d="M448 640l192-133.568L448 384v256z" fill="#FFFFFF" p-id="31506"></path></svg>