<?xml version="1.0" standalone="no"?><!DOCTYPE svg PUBLIC "-//W3C//DTD SVG 1.1//EN" "http://www.w3.org/Graphics/SVG/1.1/DTD/svg11.dtd"><svg t="1766978398711" class="icon" viewBox="0 0 1024 1024" version="1.1" xmlns="http://www.w3.org/2000/svg" p-id="28180" xmlns:xlink="http://www.w3.org/1999/xlink" width="200" height="200"><path d="M872.598588 936.568471c0 14.908235-5.872941 29.214118-16.353882 39.755294a55.627294 55.627294 0 0 1-39.454118 16.444235H221.515294c-14.787765 0-28.973176-5.903059-39.454118-16.444235A56.470588 56.470588 0 0 1 165.647059 936.598588V58.669176A56.591059 56.591059 0 0 1 182.000941 18.883765 55.747765 55.747765 0 0 1 221.485176 2.409412H603.557647l269.040941 276.48v657.679059z" fill="#23A566" p-id="28181"></path><path d="M633.163294 271.661176l239.435294 230.610824V277.263059H660.48a53.308235 53.308235 0 0 1-26.503529-6.716235l-0.813177 1.114352z" fill="#1C8F5A" p-id="28182"></path><path d="M872.598588 278.437647h-212.660706c-14.787765 0-28.973176-5.963294-39.454117-16.504471a56.500706 56.500706 0 0 1-16.353883-39.725176V0.903529l268.468706 277.534118z" fill="#8ED1B1" p-id="28183"></path><path d="M702.403765 810.194824H334.516706v-321.355295h367.887059V810.164706z m-161.069177-275.004236v56.229647h115.862588v-56.139294l-115.862588-0.090353z m0 91.678118v53.729882h115.862588v-54.000941l-115.862588 0.271059z m0 88.003765v49.78447h115.862588v-50.055529l-115.862588 0.301176z m-45.477647 49.513411v-49.78447h-115.83247v49.78447h115.83247z m0-84.329411v-53.458824h-115.83247v53.699765l115.83247-0.271059z m0-88.033883V535.190588h-115.83247v56.229647l115.83247 0.602353z" fill="#FFFFFF" p-id="28184"></path></svg>