<?xml version="1.0" standalone="no"?><!DOCTYPE svg PUBLIC "-//W3C//DTD SVG 1.1//EN" "http://www.w3.org/Graphics/SVG/1.1/DTD/svg11.dtd"><svg t="1767058246873" class="icon" viewBox="0 0 1024 1024" version="1.1" xmlns="http://www.w3.org/2000/svg" p-id="16789" xmlns:xlink="http://www.w3.org/1999/xlink" width="200" height="200"><path d="M0 0h1024v1024H0z" fill="#FFFFFF" fill-opacity=".976" opacity=".99" p-id="16790"></path><path d="M0 0h1024v873.757699H607.983937c-31.989606 0-95.999055 8.980069-95.999055 47.98441 0-39.004341-63.979213-47.98441-95.999055-47.98441H0z" fill="#00CCFF" fill-opacity=".976" opacity=".99" p-id="16791"></path><path d="M714.263206 445.617031c122.001949 0 220.933888 78.190097 220.933889 174.642691s-98.93194 174.642691-220.933889 174.64269a271.458116 271.458116 0 0 1-85.990965-13.727109c-13.213098-4.414445-44.114211 19.985945-55.875985 13.727109-11.731538-6.289072-4.353973-43.267606-14.362063-51.159181a179.117607 179.117607 0 0 1-47.31922-55.513155 143.257803 143.257803 0 0 1-17.385655-67.970354c0-96.452594 98.93194-174.642691 220.933888-174.642691z m68.575073 114.231317a15.329613 15.329613 0 0 0-15.329613 15.329613 15.329613 15.329613 0 0 0 15.329613 15.329613 15.329613 15.329613 0 0 0 15.329613-15.329613 15.329613 15.329613 0 0 0-15.329613-15.329613z m-127.535123 0a15.329613 15.329613 0 0 0-15.329612 15.329613 15.329613 15.329613 0 0 0 15.329612 15.329613 15.329613 15.329613 0 0 0 15.329613-15.329613 15.329613 15.329613 0 0 0-15.329613-15.329613z" fill="#FFFFFF" opacity=".99" p-id="16792"></path></svg>