<?xml version="1.0" standalone="no"?><!DOCTYPE svg PUBLIC "-//W3C//DTD SVG 1.1//EN" "http://www.w3.org/Graphics/SVG/1.1/DTD/svg11.dtd"><svg t="1775136126175" class="icon" viewBox="0 0 1024 1024" version="1.1" xmlns="http://www.w3.org/2000/svg" p-id="22747" xmlns:xlink="http://www.w3.org/1999/xlink" width="200" height="200"><path d="M506.84 194.8c25.62-4.26 57.08 4.4 70.68 27.98 1.06 23.46-7.26 46.06-9.42 69.32 37.48-12.3 72.3-42.4 113.96-34.16 20.5 2.72 28.38 39.54 5.96 45.98-39.26 18.02-82.6 25.1-123.34 38.66-6.32 14.94-2.32 35.04-4.58 51.74 33.78-9.26 67.3-35.94 103.72-22.18 17.04 4 32.16 18.6 27.86 37.56-14.64 62.36 12.08 123.74 17.02 185.66 3.38 18.16 7.74 44.52-11.98 55.46-19.78 10.12-30.06-19.62-48.84-13.06-35.62 9.6-71.7 17.74-106.82 29-4.5 9.5-10.08 23.78-22.84 23.24-10.32-4.3-18-13.82-22.2-23.96-16.28-68.36-18.46-140.6-40.94-207.28-20.28-17.9-2.5-49.52 23.94-37.58 9.76 3.66 19.72 1.54 28.3-4.02 1.44-20.38 3.66-40.72 4.66-61.12-37.46 4.6-77.26 20.58-113.6 3.62-12.48-9.16 4.62-21.14 14.18-23 32.94-11.82 68-16.16 101.26-27.04 0.58-30.52-6.3-60.48-19.66-87.8-6.22-11.2-0.3-25.6 12.68-27.02m90.1 228.24c-28.54 5.98-55.72 17.34-83.38 26.38-15.68 3.38-3.5 23.4-3 34.38 27.8-7.26 55.06-26.82 84.8-17.1 10.42 2.64 18.62 17.2 6.54 23.22-27.38 11.86-57.06 17.54-85.46 26.48 2.2 13.16 3.84 26.52 7.44 39.36 28.4-7.44 79.94-37.2 96.16 2.06-22.76 22.88-64.18 20.44-89.88 36.34 1.64 12.62 3.7 25.24 6.24 37.72 36.42-11.4 71.12-29.58 109.32-34.5-7.28-52.64-16.22-105.08-25.94-157.3-1.32-10.68-10.78-22.48-22.84-17.04zM308.86 246.8c28.56-3.02 67.64 14.04 67.04 47.18-15.98 48.08-35.86 95.08-53.2 142.76-3.4 7 5.42 10.9 8.54 16 17.14 15.46 14.78 40 19.38 60.62 12.78 88.02 23.4 176.34 33.48 264.7 5.14 15.2 1.62 45.3-21.48 39.4-26-14.78-44.52-45.08-44.26-75.52-5.84-81.72-2.46-165.62-26.14-244.86-26.94 33.56-47.46 74.8-84.34 98.78-5.82 5.86-26.26 8.24-20.44-4.22 19.8-48.86 51.74-91.9 71.16-141.02 24.68-60.26 40.34-125.2 37.36-190.7-1-7.3 6.46-12.26 12.9-13.12z" fill="#FFFEFE" p-id="22748"></path><path d="M392.88 522.86c21.48-4.52 48.9 5.12 52.92 29.18 9.6 54.94 15.56 110.52 24.56 165.58 103.12-24.34 205.76-50.8 308.56-76.48 23.74-5.04 57.04 3.14 65.92 28.16 6.74 15.72-10.42 26.58-23.76 27.62-124.58 10.48-247.72 36.56-364.42 81.76-18.54 5.76-41.56-6.02-45.86-25.26 8.2-53.72-0.68-108.24-8.86-161.46-2.98-20.32-21.92-33.28-28.02-51.94 0.6-10 9.88-15.8 18.96-17.16z" fill="#FFFEFE" p-id="22749"></path><path d="M490.94 93.1c129.34-8.28 259.76 50.22 342.68 149.26 81.84 97.1 116.04 232.2 89.14 356.38-25 121.1-106.9 228.66-216.72 285.34-112.52 59.26-252.6 63.92-367.98 9.76-123.74-55.64-216.9-174.6-239.06-308.68-23.06-122.22 13.6-253.32 95.22-346.88 73.28-86.6 183.52-140 296.72-145.18m15.9 101.7c-12.98 1.42-18.9 15.82-12.68 27.02 13.36 27.32 20.24 57.28 19.66 87.8-33.26 10.88-68.32 15.22-101.26 27.04-9.56 1.86-26.66 13.84-14.18 23 36.34 16.96 76.14 0.98 113.6-3.62-1 20.4-3.22 40.74-4.66 61.12-8.58 5.56-18.54 7.68-28.3 4.02-26.44-11.94-44.22 19.68-23.94 37.58 22.48 66.68 24.66 138.92 40.94 207.28 4.2 10.14 11.88 19.66 22.2 23.96 12.76 0.54 18.34-13.74 22.84-23.24 35.12-11.26 71.2-19.4 106.82-29 18.78-6.56 29.06 23.18 48.84 13.06 19.72-10.94 15.36-37.3 11.98-55.46-4.94-61.92-31.66-123.3-17.02-185.66 4.3-18.96-10.82-33.56-27.86-37.56-36.42-13.76-69.94 12.92-103.72 22.18 2.26-16.7-1.74-36.8 4.58-51.74 40.74-13.56 84.08-20.64 123.34-38.66 22.42-6.44 14.54-43.26-5.96-45.98-41.66-8.24-76.48 21.86-113.96 34.16 2.16-23.26 10.48-45.86 9.42-69.32-13.6-23.58-45.06-32.24-70.68-27.98m-197.98 52c-6.44 0.86-13.9 5.82-12.9 13.12 2.98 65.5-12.68 130.44-37.36 190.7-19.42 49.12-51.36 92.16-71.16 141.02-5.82 12.46 14.62 10.08 20.44 4.22 36.88-23.98 57.4-65.22 84.34-98.78 23.68 79.24 20.3 163.14 26.14 244.86-0.26 30.44 18.26 60.74 44.26 75.52 23.1 5.9 26.62-24.2 21.48-39.4-10.08-88.36-20.7-176.68-33.48-264.7-4.6-20.62-2.24-45.16-19.38-60.62-3.12-5.1-11.94-9-8.54-16 17.34-47.68 37.22-94.68 53.2-142.76 0.6-33.14-38.48-50.2-67.04-47.18m84.02 276.06c-9.08 1.36-18.36 7.16-18.96 17.16 6.1 18.66 25.04 31.62 28.02 51.94 8.18 53.22 17.06 107.74 8.86 161.46 4.3 19.24 27.32 31.02 45.86 25.26 116.7-45.2 239.84-71.28 364.42-81.76 13.34-1.04 30.5-11.9 23.76-27.62-8.88-25.02-42.18-33.2-65.92-28.16-102.8 25.68-205.44 52.14-308.56 76.48-9-55.06-14.96-110.64-24.56-165.58-4.02-24.06-31.44-33.7-52.92-29.18z" fill="#F04133" p-id="22750"></path><path d="M596.94 423.04c12.06-5.44 21.52 6.36 22.84 17.04 9.72 52.22 18.66 104.66 25.94 157.3-38.2 4.92-72.9 23.1-109.32 34.5-2.54-12.48-4.6-25.1-6.24-37.72 25.7-15.9 67.12-13.46 89.88-36.34-16.22-39.26-67.76-9.5-96.16-2.06-3.6-12.84-5.24-26.2-7.44-39.36 28.4-8.94 58.08-14.62 85.46-26.48 12.08-6.02 3.88-20.58-6.54-23.22-29.74-9.72-57 9.84-84.8 17.1-0.5-10.98-12.68-31 3-34.38 27.66-9.04 54.84-20.4 83.38-26.38z" fill="#F04133" p-id="22751"></path></svg>