<?xml version="1.0" standalone="no"?><!DOCTYPE svg PUBLIC "-//W3C//DTD SVG 1.1//EN" "http://www.w3.org/Graphics/SVG/1.1/DTD/svg11.dtd"><svg t="1775135995387" class="icon" viewBox="0 0 1024 1024" version="1.1" xmlns="http://www.w3.org/2000/svg" p-id="16017" xmlns:xlink="http://www.w3.org/1999/xlink" width="200" height="200"><path d="M569.16 456.01l-11.88 80.68 73.98-13.52-7.88-78.1-54.22 10.94z m-149.14-11.76l-18.58-42.81-22.58 28.82L367.8 512l66.92-6.94-21.29 47.4 67.4-26.46-12-68.22-48.81-13.53z" fill="#D81E06" p-id="16018"></path><path d="M512 64C264.54 64 64 264.54 64 512s200.54 448 448 448 448-200.54 448-448S759.58 64 512 64z m202.06 560.21L692.3 771.58l-50.34 32.93-31.4-186.89-55.04-5.29-41.75 156.9-52.93 34.93-4.82-179.95-43.4-7.29-18.47-49.4-19.05 23.05-28.82 213.83-113.03-77.27 72.22-20.94-14.94-100.44-38.58 34.23-33.99-116.79 79.51-14.82-11.64-73.51-21.29-6.7-37.75-68.22 55.99-18.11 55.87-119.26 40.22 113.03 46.81 6.59 0.35 38.7 68.33-14.35-52.69-139.38 134.55 55.04-32.93 93.74 67.39-14 56.69-142.32 97.27 73.51-95.03 73.16h89.04l27.52 76.1-62.81 1.53L704.89 526l74.22 15.53 27.17 70.57-92.22 12.11z" fill="#D81E06" p-id="16019"></path></svg>