<?xml version="1.0" standalone="no"?><!DOCTYPE svg PUBLIC "-//W3C//DTD SVG 1.1//EN" "http://www.w3.org/Graphics/SVG/1.1/DTD/svg11.dtd"><svg t="1775136481046" class="icon" viewBox="0 0 1024 1024" version="1.1" xmlns="http://www.w3.org/2000/svg" p-id="30245" xmlns:xlink="http://www.w3.org/1999/xlink" width="200" height="200"><path d="M485.973333 938.453333l-14.933333-1.408a414.421333 414.421333 0 0 1-118.016-30.037333c-31.658667-13.397333-68.266667-34.56-81.92-47.36a366.805333 366.805333 0 0 0-16.853333-14.250667c-84.053333-67.2-139.093333-172.288-147.925334-282.453333l-1.152-14.336 0.554667-27.050667 0.512-27.050666 1.536-11.733334C124.928 351.616 198.954667 240.042667 310.613333 177.066667l11.093334-6.229334 11.093333-11.093333c37.248-37.333333 81.109333-62.634667 125.696-72.405333l5.76-1.28h72.277333l10.794667 3.114666 10.837333 3.114667 9.514667 4.906667c10.325333 5.333333 20.906667 12.842667 28.714667 20.437333l4.992 4.821333 2.218666-0.512c1.28-0.298667 5.674667-1.408 9.898667-2.56l7.594667-2.005333h15.146666l5.717334 2.346667 5.76 2.304 9.429333 8.021333c11.989333 10.24 12.8 10.794667 27.733333 19.114667 17.749333 9.898667 26.154667 16.213333 38.912 29.226666 6.144 6.272 13.952 13.397333 17.408 15.829334 88.32 62.464 146.261333 148.224 168.106667 248.746666 32.042667 147.456-18.048 297.301333-132.608 396.714667a100.053333 100.053333 0 0 0-10.752 10.197333 63.488 63.488 0 0 1-9.472 8.021334 404.608 404.608 0 0 1-201.642667 78.890666l-15.445333 1.621334-25.045333 0.213333c-13.781333 0.085333-26.538667 0-28.416-0.128z m70.4-419.157333c1.28-10.624-0.853333-19.925333-3.584-15.488-0.981333 1.578667-1.109333 11.392-0.213333 14.08 0.682667 1.962667 3.584 3.072 3.754667 1.408z m87.722667-30.72c3.157333-2.858667 1.621333-7.082667-2.56-7.082667-4.096 0-5.76 4.266667-2.858667 7.168 1.962667 1.92 3.2 1.877333 5.418667-0.085333z m-226.261333-18.005333a3.242667 3.242667 0 0 0-0.256-2.56l-0.768-1.194667-1.066667 0.64c-0.597333 0.384-1.066667 1.493333-1.066667 2.56v1.834667h1.322667a2.133333 2.133333 0 0 0 1.834667-1.28z m120.106666-147.968a9.813333 9.813333 0 0 0 0.981334-3.84v-2.005334h-3.84v7.68h0.896c0.512 0 1.408-0.810667 1.962666-1.834666z m27.946667-3.925334v-1.92h-15.402667v3.84h15.402667V318.72z m-10.752-10.496l1.365333-0.768-1.024-0.64c-1.28-0.810667-0.426667-3.498667 1.152-3.498666 0.597333 0 1.664-0.853333 2.346667-1.962667l1.237333-2.005333 2.56 0.298666 2.645334 0.298667 0.298666 2.645333 0.298667 2.645334h3.754667v-1.792c0-1.024 0.64-3.072 1.408-4.565334 1.834667-3.541333 1.834667-5.205333 0-5.205333h-1.450667V291.413333a5.12 5.12 0 0 1 1.450667-3.498666c2.56-2.133333-0.981333-5.802667-3.84-3.968a11.690667 11.690667 0 0 1-3.84 0.853333 320.554667 320.554667 0 0 0-7.978667 0.810667l-5.034667 0.554666v3.669334H554.666667c4.821333 0 5.418667 0.426667 4.736 2.986666-0.554667 2.176-2.688 2.432-3.498667 0.426667-0.298667-0.853333-0.981333-1.493333-1.493333-1.493333h-0.981334l0.554667 2.816 0.554667 2.816-1.962667 1.024a12.970667 12.970667 0 0 1-5.12 1.066666h-3.114667l1.152 1.152c1.493333 1.536 1.450667 4.565333-0.085333 5.12-0.682667 0.298667-1.322667 1.408-1.408 2.56l-0.170667 2.005334 4.949334-0.682667a27.093333 27.093333 0 0 0 6.357333-1.408z m-16.213333-2.986666v-3.84h-7.68v7.68h7.68v-3.84z m7.68-9.6v-1.962667h-3.84v3.84h3.84v-1.877333z m32.768-15.445334v-1.92h-5.76v3.84h5.76v-1.92z" fill="#CAE3FD" p-id="30246"></path><path d="M480.64 85.333333l-13.013333 1.706667-13.013334 1.621333-12.202666 3.754667c-15.914667 4.906667-31.488 11.52-46.762667 19.968-26.581333 14.72-58.709333 41.258667-74.24 61.354667-2.474667 3.157333-7.168 8.96-10.453333 12.8-14.634667 17.28-39.168 58.965333-47.104 80.128a383.872 383.872 0 0 1-4.309334 10.624c-14.933333 35.456-31.189333 93.610667-34.688 124.245333-4.906667 42.922667-6.4 99.754667-3.370666 124.245333 0.256 1.877333 0.682667 7.936 1.024 13.482667 0.298667 5.546667 1.152 18.346667 1.92 28.458667 0.725333 10.069333 1.792 29.568 2.346666 43.349333 1.621333 38.656 2.901333 58.112 4.053334 60.672l1.109333 2.346667 6.826667 2.816c3.754667 1.536 12.245333 3.968 18.858666 5.418666 6.613333 1.408 13.226667 2.901333 19.84 4.394667 4.266667 0.981333 14.250667 2.901333 22.186667 4.266667 7.893333 1.408 20.864 3.797333 28.8 5.333333 7.936 1.493333 17.28 2.901333 20.693333 3.072l6.272 0.298667 0.469334-6.741334 0.512-6.741333 16.341333 0.256c9.045333 0.170667 20.053333 0.725333 24.576 1.194667 4.522667 0.512 14.677333 1.152 22.613333 1.450666 7.978667 0.298667 17.194667 0.768 20.48 1.066667l6.058667 0.512v6.912c-0.128 31.488-10.666667 62.165333-26.88 78.421333l-6.058667 6.016-2.56 0.512a28.842667 28.842667 0 0 0-14.293333 6.016c-9.557333 7.424-18.261333 12.245333-61.738667 33.962667-43.050667 21.504-60.885333 31.573333-62.250666 35.157333l-0.64 1.706667 2.176 2.346667c1.237333 1.28 6.314667 5.12 11.349333 8.405333a406.272 406.272 0 0 0 204.245333 67.925333c16.128 0.938667 44.16 0.426667 52.309334-1.024a130.56 130.56 0 0 1 14.421333-1.28c16.469333-0.554667 55.893333-8.533333 77.525333-15.616 48.64-16.042667 95.744-40.661333 126.634667-66.133333l4.608-3.754667v-1.792c0-0.981333-3.541333-7.04-7.808-13.397333l-7.808-11.605333-6.869333-6.357334c-11.52-10.581333-19.2-13.397333-46.293334-16.768a675.498667 675.498667 0 0 1-64.170666-10.24l-9.130667-1.664-7.722667-3.584c-4.266667-1.962667-10.24-4.266667-13.397333-5.12l-5.674667-1.450666-4.181333-4.096-4.181333-4.096-3.925334-7.552-3.925333-7.552-2.346667-9.386667c-3.541333-14.037333-5.546667-40.874667-3.285333-43.136l0.981333-0.981333 5.973334 0.725333c3.328 0.426667 17.493333 1.664 31.573333 2.730667l38.570667 2.986666 13.098666 1.066667 25.941334-1.066667c34.346667-1.408 31.744-0.426667 30.293333-11.861333a375.808 375.808 0 0 1-0.981333-29.866667v-22.826666l2.432-15.658667c1.365333-8.618667 3.626667-20.266667 5.12-25.813333l2.56-10.112 13.482666-1.706667 13.482667-1.706667 9.642667-2.944c10.794667-3.328 15.36-5.674667 24.746666-12.714666l6.485334-4.864 3.84-5.461334c7.082667-10.069333 10.624-21.674667 10.666666-34.688v-8.234666l-1.493333-5.674667a65.28 65.28 0 0 0-4.565333-11.52l-3.114667-5.845333-6.656-7.04-6.656-6.997334-7.296-4.778666c-11.093333-7.253333-11.648-7.68-11.648-9.216a33.28 33.28 0 0 1 3.84-7.850667c5.333333-8.832 9.642667-20.394667 11.221333-30.122667l1.28-8.192 0.64-22.144 0.597334-22.186666-1.109334-10.538667a386.048 386.048 0 0 0-3.114666-21.674667c-1.749333-9.856-3.242667-16-10.410667-43.008a187.221333 187.221333 0 0 1-3.413333-20.736l-1.536-13.824-3.712-13.952c-5.034667-18.773333-8.405333-27.221333-16.682667-41.728l-6.954667-12.245333-6.272-7.466667a179.882667 179.882667 0 0 0-61.653333-48.554666L665.6 139.946667l-8.96-8.490667-8.874667-8.448-5.333333-2.389333-5.333333-2.346667h-19.328l-7.168 2.432c-8.704 2.901333-9.258667 2.944-11.562667 0.341333a170.453333 170.453333 0 0 0-11.477333-9.728l-9.642667-7.68-11.093333-5.546666-11.050667-5.546667-11.52-3.114667-11.605333-3.114666-26.026667-0.512L480.682667 85.333333z m-4.437333 374.954667h0.981333c1.493333 0 3.925333 9.386667 4.010667 15.36a29.866667 29.866667 0 0 0 0.768 7.168l0.725333 1.792-2.133333 4.309333a17.109333 17.109333 0 0 1-3.413334 5.162667c-3.968 2.56-4.266667 1.450667-1.706666-6.058667l1.962666-5.888 0.170667-7.296a65.706667 65.706667 0 0 0-0.597333-10.922666l-0.768-3.626667z m-60.586667 5.12c1.493333-0.426667 3.2 0.256 3.925333 2.261333l0.768 2.048-1.450666 2.048c-2.346667 3.370667-6.144 1.92-6.144-2.389333 0-2.176 1.365333-3.626667 2.858666-4.010667z m278.869333 12.885333l1.28 1.493334c2.602667 3.2 3.584 11.221333 2.005334 16.64a22.698667 22.698667 0 0 1-3.584 6.997333l-2.218667 2.645333 0.682667-3.413333c0.384-1.834667 0.938667-8.106667 1.28-13.866667l0.554666-10.496z m-55.338666 2.218667h2.304c4.394667 0 6.826667 4.608 4.138666 7.893333-2.56 3.242667-7.68 2.56-8.874666-1.109333l-0.64-2.048 1.536-2.346667 1.536-2.389333z m-85.333334 22.272c2.176-1.066667 3.669333 7.253333 2.56 16.512-0.213333 1.664-3.114667 0.554667-3.84-1.450667-0.853333-2.645333-0.725333-12.458667 0.256-14.037333a2.602667 2.602667 0 0 1 0.981334-1.024z m-9.173333 409.301333c0.426667 0-1.194667 1.962667-3.584 4.309334-5.589333 5.632-6.272 5.717333-3.541333 0.426666 1.28-2.517333 4.693333-4.736 7.125333-4.736z" fill="#EEC5B9" p-id="30247"></path><path d="M484.522667 937.472c-74.837333-5.973333-141.525333-28.928-200.661334-68.992-9.898667-6.741333-11.904-8.746667-11.050666-11.178667 1.109333-3.114667 20.650667-14.037333 62.592-35.029333 43.264-21.674667 52.266667-26.581333 60.757333-33.322667a23.722667 23.722667 0 0 1 14.037333-5.973333h3.285334l4.864-4.352c16.512-14.848 26.453333-41.301333 28.672-76.373333l0.64-10.496-1.194667-0.725334a164.352 164.352 0 0 0-20.181333-1.536c-10.410667-0.426667-23.466667-1.237333-29.013334-1.792a368.426667 368.426667 0 0 0-25.472-1.28l-15.402666-0.256-0.469334 6.784-0.512 6.741334-6.272-0.298667c-3.413333-0.128-12.757333-1.578667-20.693333-3.2-8.32-1.664-16.64-3.242667-25.045333-4.693333a1100.032 1100.032 0 0 1-34.816-7.168l-24.192-5.290667-5.248-2.304-5.248-2.346667-1.621334-5.674666c-2.176-7.893333-2.432-10.794667-3.584-40.32a2200.106667 2200.106667 0 0 0-4.736-87.68L221.866667 512.853333v-22.186666c0-31.488 3.285333-72.96 6.869333-86.272a145.493333 145.493333 0 0 0 1.962667-15.914667c0.512-6.826667 1.578667-14.976 2.346666-18.176l4.352-19.285333c7.594667-33.749333 17.664-63.445333 32.810667-96.853334C308.48 169.984 380.501333 106.24 456.533333 89.173333l8.661334-1.92 31.872-0.426666 31.914666-0.426667 12.672 3.029333 12.672 3.072 10.368 5.12c11.093333 5.461333 18.218667 10.325333 29.696 20.352l7.338667 6.4 8.32-2.773333 8.32-2.773333 9.642667 0.042666 9.6 0.085334 5.802666 2.986666 5.76 2.986667 6.784 7.04 6.784 7.082667 12.970667 6.826666c57.173333 30.037333 88.96 75.818667 93.354667 134.272l0.938666 12.074667 3.84 12.032c5.034667 15.786667 8.96 31.829333 11.776 48.170667l2.218667 12.970666v52.992l-1.28 9.088a99.242667 99.242667 0 0 1-13.141333 35.541334 13.482667 13.482667 0 0 0-2.389334 5.589333v2.133333l8.192 5.461334c7.509333 5.077333 19.754667 16.64 19.754667 18.773333 0 0.469333-2.816-0.426667-6.272-2.090667l-6.272-2.944-2.261333 0.597334-2.261334 0.554666-1.664 4.608c-0.896 2.517333-2.005333 5.418667-2.474666 6.485334a30.464 30.464 0 0 0-1.450667 4.949333 11.477333 11.477333 0 0 1-2.944 5.248c-1.28 1.194667-2.346667 3.072-2.346667 4.096a6.357333 6.357333 0 0 1-1.28 3.456c-1.92 2.346667-7.936 17.066667-10.24 25.130667a69.504 69.504 0 0 1-3.498666 9.856c-0.853333 1.493333-1.194667 3.072-0.896 3.584 0.298667 0.469333-0.170667 2.688-1.066667 4.864l-1.578667 3.968 1.024 2.133333c0.554667 1.152 1.28 2.901333 1.578667 3.925333l0.597333 1.792 5.973334-0.554666c16.853333-1.664 31.573333-8.746667 39.253333-18.901334l3.242667-4.309333 0.384 1.152c0.213333 0.597333-0.853333 3.328-2.304 6.058667l-2.730667 4.949333-5.461333 4.949333c-13.312 12.032-28.501333 18.048-52.608 20.906667-5.461333 0.682667-10.24 1.706667-10.709334 2.261333-1.493333 1.877333-6.741333 24.832-8.746666 38.357334l-1.962667 13.226666v22.869334c0 12.629333 0.426667 26.026667 0.938667 29.866666 1.493333 11.52 4.096 10.496-30.293334 11.904l-25.898666 1.066667-13.098667-1.024-38.570667-3.029333c-14.08-1.066667-28.245333-2.304-31.573333-2.730667a20.437333 20.437333 0 0 0-7.125333-0.042667l-1.109334 0.682667 0.554667 14.805333 0.512 14.762667 2.133333 10.112 2.090667 10.112 3.584 7.722667 3.626667 7.722666 5.290666 5.717334 5.290667 5.674666 3.114667 0.256c4.864 0.298667 7.68 1.237333 15.957333 5.12l7.765333 3.584 9.130667 1.706667a674.986667 674.986667 0 0 0 64.170667 10.24c27.093333 3.328 34.730667 6.144 46.293333 16.725333l6.869333 6.357334 7.808 11.605333c4.266667 6.4 7.808 12.202667 7.808 12.928 0 4.48-36.352 29.226667-65.536 44.629333-42.581333 22.485333-110.165333 42.496-143.530666 42.581334-3.968 0-10.581333 0.64-14.762667 1.450666l-7.552 1.450667-22.784-0.170667a824.149333 824.149333 0 0 1-26.666667-0.469333z m70.314666-8.106667l1.792-1.92-1.152-1.109333-1.152-1.152-0.853333 0.896a9.728 9.728 0 0 0-1.493333 3.114667l-0.64 2.133333h0.853333c0.512 0 1.706667-0.853333 2.645333-1.92z m-9.429333-14.890666c4.821333-2.261333 5.205333-3.370667 1.194667-3.370667-6.144 0-11.52 5.12-11.52 10.88 0 4.053333 1.28 3.712 3.797333-0.981333l2.474667-4.565334 4.053333-1.962666z m9.173333-26.453334c19.285333-1.877333 33.664-6.912 45.525334-15.872l5.76-4.394666 4.096-5.973334 4.096-6.058666 2.389333-7.722667c2.56-8.234667 4.096-20.736 3.029333-24.917333l-0.64-2.56-9.813333-4.821334c-5.589333-2.730667-11.093333-5.546667-16.64-8.362666a285.525333 285.525333 0 0 0-10.112-4.992 34.474667 34.474667 0 0 1-6.101333-3.712 9.770667 9.770667 0 0 0-4.48-2.133334 13.013333 13.013333 0 0 1-4.522667-1.365333c-1.706667-0.853333-3.413333-1.621333-5.12-2.346667l-3.84-1.536a60.245333 60.245333 0 0 1-5.290667-2.901333 106.837333 106.837333 0 0 0-6.784-3.754667 46.762667 46.762667 0 0 1-6.186666-3.882666 13.056 13.056 0 0 0-4.522667-2.56c-0.682667 0-2.389333-1.066667-3.84-2.389334-1.408-1.28-3.413333-2.389333-4.522667-2.389333a7.210667 7.210667 0 0 1-4.010666-1.92l-2.048-1.92-2.858667-0.128a29.312 29.312 0 0 1-4.608-0.597333l-1.834667-0.469334 1.322667-0.938666 1.365333-0.896-3.84 0.426666-14.250666 1.706667-10.325334 1.28-0.554666 1.664-0.512 1.664-2.858667 0.597333c-1.578667 0.341333-2.858667 1.024-2.858667 1.536 0 0.469333-0.298667 0.810667-0.725333 0.725334-1.28-0.341333-6.4 2.474667-10.453333 5.674666a27.562667 27.562667 0 0 1-4.437334 3.157334 24.746667 24.746667 0 0 0-4.224 3.413333 23.168 23.168 0 0 1-7.296 4.437333 15.274667 15.274667 0 0 0-5.717333 3.370667c-1.194667 1.237333-2.645333 2.261333-3.2 2.261333a26.794667 26.794667 0 0 0-6.186667 3.370667 26.581333 26.581333 0 0 1-6.229333 3.370667c-1.28 0-9.216 7.424-13.866667 12.970666l-3.157333 3.712v2.304c0 9.301333 25.557333 37.76 42.410667 47.274667 2.901333 1.621333 10.666667 4.992 17.28 7.466667l11.989333 4.48 11.093333 2.218666c6.144 1.28 12.245333 2.432 13.568 2.688 4.608 0.853333 35.2 0.64 44.544-0.298666z m1.194667-201.386666l6.741333-0.981334 14.848-7.253333c8.106667-3.968 16.469333-8.661333 18.474667-10.368 2.048-1.706667 4.864-3.754667 6.314667-4.522667 1.408-0.768 5.12-3.797333 8.192-6.698666 7.253333-6.826667 10.197333-8.96 14.293333-10.581334a33.066667 33.066667 0 0 0 6.954667-4.010666 15.018667 15.018667 0 0 1 4.608-2.730667 18.090667 18.090667 0 0 0 5.12-4.522667c2.218667-2.517333 5.034667-5.504 6.229333-6.656a9.728 9.728 0 0 0 2.56-4.053333c0.597333-2.816 2.773333-5.973333 4.181333-5.973333 0.64 0 1.194667-0.64 1.194667-1.450667 0-1.706667 4.394667-6.442667 7.466667-8.106667a6.4 6.4 0 0 0 2.773333-3.584 34.816 34.816 0 0 1 3.157333-6.826666l3.669334-6.357334a11.52 11.52 0 0 1 2.474666-3.029333c1.621333-1.194667 2.688-6.144 1.536-6.826667-0.469333-0.298667-0.853333-1.365333-0.853333-2.389333v-1.834667l-2.901333-2.133333-2.944-2.176 0.469333-1.28 0.512-1.194667h-1.92c-1.066667 0-2.176-0.64-2.474667-1.450666-0.298667-0.768-2.005333-1.92-3.754666-2.56l-3.2-1.152-1.024-2.261334c-0.554667-1.237333-1.706667-2.218667-2.56-2.218666h-1.493334l-1.365333-3.157334c-1.834667-4.138667-3.328-5.802667-6.314667-7.125333-1.365333-0.597333-2.56-1.706667-2.602666-2.389333a82.133333 82.133333 0 0 0-1.493334-6.826667l-1.408-5.461333 1.28-1.706667c2.133333-2.816 1.664-4.010667-2.56-6.144a41.258667 41.258667 0 0 1-15.872-15.914667l-3.328-5.973333-1.408-6.613333a78.122667 78.122667 0 0 1-1.408-13.184v-6.528l-0.896 0.554666c-1.322667 0.768-4.096 9.642667-4.778666 15.274667l-0.597334 4.864-2.901333 0.768-2.858667 0.725333-0.938666-0.938666a20.906667 20.906667 0 0 1-1.28-7.424 22.528 22.528 0 0 0-1.28-7.424 4.352 4.352 0 0 1-0.853334-2.56 12.416 12.416 0 0 0-1.706666-4.565334l-1.621334-2.901333 1.152-3.242667a19.797333 19.797333 0 0 0 1.194667-4.949333c0-0.938667 0.64-2.346667 1.450667-3.157333l1.450666-1.450667v-6.528l2.005334-1.066667c1.109333-0.597333 2.602667-0.853333 3.370666-0.554666l1.365334 0.554666v-3.797333l3.626666-3.328 3.584-3.285333 3.114667-0.597334 3.072-0.597333 1.962667-2.773333 2.005333-2.773334 6.954667-2.005333c3.84-1.109333 8.192-2.432 9.685333-2.944a7.850667 7.850667 0 0 1 4.096-0.341333c0.768 0.298667 2.389333-0.085333 3.541333-0.853334l2.176-1.365333 6.058667 0.170667c3.328 0.128 6.229333-0.128 6.485333-0.554667 0.256-0.426667 1.322667-0.512 2.389334-0.256l1.92 0.512v-3.114667h1.834666a4.437333 4.437333 0 0 0 2.986667-1.450666l1.194667-1.450667h7.424l3.370666-2.986667c3.328-2.901333 5.802667-3.072 4.693334-0.341333l-0.512 1.408h1.024a2.133333 2.133333 0 0 0 1.621333-0.981333c0.341333-0.554667 1.749333-0.853333 3.2-0.725334l2.56 0.256 0.298667-2.133333 0.298666-2.176h1.877334c2.432 0 2.389333-1.621333-0.085334-2.432-1.024-0.341333-1.92-0.981333-1.92-1.450667 0-1.450667-6.954667-2.858667-15.274666-3.114666-4.266667-0.128-7.850667-0.597333-7.850667-1.066667v-0.810667l-5.973333 0.768c-3.370667 0.426667-8.106667 0.682667-10.666667 0.597334a29.696 29.696 0 0 0-8.874667 1.28l-4.352 1.493333-8.106666 0.170667-8.106667 0.213333-2.730667-2.005333a25.770667 25.770667 0 0 1-4.864-5.205334l-2.176-3.2v-7.466666l1.877334-3.669334c3.84-7.509333 10.88-11.946667 22.656-14.208l6.784-1.322666h24.490666l13.738667 2.986666c7.594667 1.578667 16.768 3.285333 20.394667 3.712l6.656 0.810667 2.730666-0.981333 2.773334-0.938667v-10.922667l-1.92-1.706666-1.92-1.621334v-6.528l-3.029334-6.613333a47.104 47.104 0 0 0-5.674666-9.514667 192.298667 192.298667 0 0 1-7.850667-9.813333 308.053333 308.053333 0 0 0-38.4-39.68c-15.018667-12.672-16.213333-13.525333-37.034667-27.52a292.949333 292.949333 0 0 1-21.888-15.701333l-3.584-3.413334-5.12-0.426666-5.077333-0.426667-12.501333 2.56c-27.050667 5.589333-52.821333 17.152-72.021334 32.256a277.034667 277.034667 0 0 1-9.728 7.253333c-7.808 5.504-21.034667 19.626667-24.618666 26.282667a51.968 51.968 0 0 1-4.778667 6.357333c-2.048 2.346667-5.162667 7.253333-6.912 10.794667l-3.157333 6.485333-0.981334 8.405334c-1.322667 11.818667-0.853333 12.458667 10.922667 14.506666 22.442667 4.010667 37.546667 14.506667 37.546667 26.112v4.138667l-1.962667 3.285333-2.005333 3.242667-6.442667-0.554667a62.549333 62.549333 0 0 1-12.629333-2.645333 184.106667 184.106667 0 0 0-15.744-4.266667l-9.557334-2.176-3.498666 0.426667c-4.778667 0.512-7.466667 1.962667-8.704 4.693333l-1.066667 2.346667 0.597333 4.309333c0.341333 2.389333 1.194667 4.821333 1.92 5.418667 0.725333 0.597333 1.28 1.792 1.28 2.602667 0 1.706667 4.693333 6.912 6.229334 6.954666 2.133333 0 12.416 7.552 18.901333 13.824 5.546667 5.333333 11.050667 9.258667 13.056 9.258667h2.005333l1.792 3.968c0.981333 2.133333 2.986667 5.205333 4.394667 6.741333 4.266667 4.522667 6.570667 15.018667 6.613333 29.568v8.021334l-1.024 1.962666-1.066666 1.962667-3.925334-4.096-3.968-4.096-1.194666-4.650667a58.496 58.496 0 0 0-12.458667-21.077333l-3.541333-3.370667 0.597333 2.901334 1.664 8.192 1.066667 5.290666-0.64 5.76-0.597334 5.802667-2.901333 7.338667-2.944 7.338666-4.693333 5.248a84.053333 84.053333 0 0 1-13.013334 10.88l-8.32 5.589334 0.426667 3.498666c0.213333 1.877333 0 4.650667-0.512 6.101334l-0.896 2.645333h-1.962667a28.586667 28.586667 0 0 0-8.362666 4.010667l-6.357334 4.053333-2.645333-0.213333-2.645333-0.170667v1.493333c0 0.810667-0.768 1.792-1.706667 2.176-2.048 0.853333-10.837333 10.112-10.837333 11.477334a18.986667 18.986667 0 0 1-4.266667 7.978666l-1.408 1.152 1.152 1.834667 1.152 1.834667-1.194667 1.92c-1.792 2.901333-1.493333 4.437333 1.706667 8.064a14.037333 14.037333 0 0 1 2.858667 4.181333 20.906667 20.906667 0 0 0 3.285333 5.205333c1.792 2.346667 5.717333 9.088 8.704 15.018667l5.418667 10.752 1.877333 0.64 1.92 0.597333v5.205334l6.741333 7.168c3.712 3.968 6.741333 7.637333 6.741334 8.106666 0 0.512 0.256 0.64 0.554666 0.341334 0.725333-0.725333 4.266667 2.261333 4.266667 3.584 0 1.834667 8.704 11.008 14.762667 15.616 3.285333 2.474667 7.210667 5.973333 8.746666 7.808l2.816 3.328 5.973334 2.688a27.733333 27.733333 0 0 1 6.613333 3.669333c1.493333 2.389333 12.373333 7.509333 21.248 9.984l14.506667 4.096c8.832 2.432 21.76 2.986667 32.725333 1.450667z m-21.077333-44.8l-7.594667-1.28-5.248-2.688a42.069333 42.069333 0 0 1-8.96-6.357334l-3.669333-3.669333-1.450667-4.181333-1.408-4.224 1.066667-1.066667c0.554667-0.554667 3.114667-1.066667 5.674666-1.066667h4.608v-0.896c0-0.512-3.114667-1.877333-6.954666-2.986666-12.544-3.754667-21.930667-8.746667-21.930667-11.690667v-0.981333l4.096 0.597333c2.261333 0.341333 9.088 0.853333 15.189333 1.152l11.093334 0.554667 11.008-2.005334c6.101333-1.109333 13.994667-2.048 17.621333-2.048h6.570667l3.413333-1.450666a23.253333 23.253333 0 0 1 7.594667-1.408h4.053333l3.285333 2.389333c1.792 1.322667 6.485333 4.053333 10.496 5.973333l7.210667 3.626667h17.194667l0.384 1.194667 0.384 1.152-4.053334 2.944a19.328 19.328 0 0 1-5.12 2.986666 10.666667 10.666667 0 0 0-3.84 2.432l-2.730666 2.389334-0.426667 3.114666-0.426667 3.072-4.693333 4.437334c-2.56 2.474667-7.253333 5.888-10.325333 7.68l-5.632 3.242666-14.421334 0.213334-14.464 0.213333-7.594666-1.322667z m16.256-70.741334l-7.68-0.682666-4.352-1.92a19.968 19.968 0 0 1-5.632-3.498667l-1.28-1.578667 0.554666-1.536c1.237333-3.2 17.152-7.168 28.842667-7.168h5.589333l1.408-1.408c2.304-2.304 9.216 4.053333 10.666667 9.813334l0.554667 2.346666-2.389334 2.389334c-3.968 4.010667-9.6 4.693333-26.282666 3.242666z m-91.562667 102.272a474.453333 474.453333 0 0 0-39.338667-27.861333 150.058667 150.058667 0 0 1-9.642666-6.741333c-8.106667-6.357333-22.016-15.658667-23.338667-15.658667h-1.408l1.706667 2.986667c2.730667 4.608 19.328 20.096 27.306666 25.429333 8.362667 5.589333 41.002667 22.4 43.776 22.528l1.877334 0.085333-0.938667-0.768z m266.666667-141.141333l3.754666-6.613333v-3.029334c0.085333-1.706667 0.682667-4.224 1.408-5.632a13.098667 13.098667 0 0 0 1.322667-4.821333c0-1.237333 0.682667-3.498667 1.493333-5.077333a10.24 10.24 0 0 0 1.237334-4.821334 5.76 5.76 0 0 1 0.469333-3.157333c0.426667-0.64 0.853333-6.869333 1.024-13.824l0.256-12.629333-3.712 0.597333c-2.005333 0.341333-5.973333 1.365333-8.746667 2.261333l-5.034666 1.706667-2.133334 7.68c-2.858667 10.069333-9.813333 24.021333-14.677333 29.610667-4.352 4.906667-4.693333 6.016-2.133333 7.381333 0.938667 0.512 4.096 3.413333 6.954666 6.485333l7.893334 8.32 2.645333 2.773334 2.133333-0.341334 2.133334-0.298666 3.712-6.570667z m-32.085334-20.48a31.658667 31.658667 0 0 0 5.546667-6.826667l2.517333-4.352 0.426667-6.954666 0.426667-6.912-2.56-5.248c-2.304-4.522667-5.674667-8.533333-7.253334-8.618667-0.298667 0-0.341333 5.418667-0.170666 12.032l0.341333 12.074667-2.517333 7.552c-3.584 10.794667-2.858667 12.373333 3.242666 7.253333z m-49.024-21.632l1.877334-0.981333v-6.058667l-1.621334-1.706667c-1.962667-2.218667-4.906667-2.304-7.253333-0.213333l-1.706667 1.621333v6.314667l1.664 0.981333c2.176 1.28 4.693333 1.28 7.04 0.042667z m-225.194666-18.346667l0.981333-1.536-0.64-2.432c-1.152-4.650667-6.741333-4.096-7.936 0.725334l-0.597333 2.389333 1.237333 1.493333 1.237333 1.493334 2.389334-0.298667c1.28-0.170667 2.816-0.981333 3.328-1.834667z m291.157333-50.346666a14.165333 14.165333 0 0 1 3.84-1.834667l1.92-0.469333-3.541333-0.128-3.498667-0.128-0.554667-1.408a2.346667 2.346667 0 0 0-2.005333-1.450667 1.450667 1.450667 0 0 0-1.493333 1.450667c0 0.768 0.426667 1.408 0.981333 1.408 0.512 0 0.938667 0.853333 0.938667 1.962666 0 2.261333 0.810667 2.389333 3.413333 0.597334z m97.664 110.634666l-0.426667-13.44-0.298666-6.698666 1.066666 1.834666c0.554667 1.024 1.237333 6.272 1.450667 11.648l0.426667 9.813334-1.024 1.792-1.066667 1.792-0.128-6.741334z" fill="#DDAFA2" p-id="30248"></path><path d="M496.554667 937.514667c-79.914667-4.266667-149.845333-27.093333-211.626667-68.949334-10.794667-7.338667-12.16-8.576-11.392-10.581333 1.28-3.242667 18.346667-12.8 62.122667-34.688 25.685333-12.8 48.682667-24.746667 51.072-26.453333l8.96-6.656c2.602667-1.92 6.229333-4.138667 8.106666-4.949334l3.413334-1.408 2.773333 1.152 2.730667 1.152 6.954666-6.528c18.218667-17.237333 26.026667-37.333333 28.757334-73.856l1.066666-14.506666-0.896-0.853334-0.896-0.938666-21.12-0.853334c-11.605333-0.469333-25.429333-1.28-30.72-1.792a401.365333 401.365333 0 0 0-25.045333-1.28l-15.402667-0.298666-0.128 5.76c-0.042667 3.2-0.170667 6.4-0.213333 7.125333l-0.128 1.28-6.528-0.64a227.925333 227.925333 0 0 1-18.048-3.072c-8.96-1.834667-17.92-3.584-26.965333-5.205333a1155.114667 1155.114667 0 0 1-34.986667-7.125334l-19.626667-4.352-5.034666-2.304-5.034667-2.261333-2.56-9.088-2.56-9.088v-17.365333c0-9.557333-0.682667-27.093333-1.450667-38.997334-0.853333-13.141333-1.706667-26.282667-2.432-39.424a1843.2 1843.2 0 0 0-2.048-30.72c-2.005333-25.728-0.981333-74.709333 2.005334-93.994666 4.352-28.117333 11.776-58.453333 22.272-91.050667 9.258667-28.672 29.909333-77.013333 48.384-113.194667 3.584-7.04 14.72-25.258667 17.024-27.946666 7.509333-8.533333 5.290667-8.96-4.309334-0.810667l-7.509333 6.4-1.536-0.981333-1.578667-1.024 0.170667-2.304c0.298667-4.693333 14.378667-23.722667 30.634667-41.472 12.245333-13.397333 24.576-24.192 41.216-36.010667l11.818666-8.448 17.493334-8.96 17.493333-9.045333 15.744-5.162667 15.701333-5.162667 10.624-1.792 10.581334-1.749333 27.946666 0.085333 27.904 0.085334 12.074667 3.072 12.032 3.114666 11.52 5.845334c12.8 6.4 13.653333 6.997333 27.136 18.304l9.386667 7.850666 7.765333-2.816 7.765333-2.816h20.224l5.802667 3.541334a39.850667 39.850667 0 0 1 13.312 12.586666l1.621333 2.56 13.696 6.741334c7.552 3.669333 18.474667 9.898667 24.32 13.781333l10.538667 7.04 9.685333 9.088c21.76 20.48 35.84 42.624 43.52 68.266667l2.474667 8.362666 0.725333 14.464 0.768 14.464 2.432 7.210667 6.741334 19.754667c4.48 12.8 10.112 36.565333 12.373333 52.010666l1.28 8.661334V419.413333l-1.28 7.68c-0.64 4.266667-1.578667 8.789333-2.048 10.112a182.186667 182.186667 0 0 1-10.794667 25.002667 17.237333 17.237333 0 0 0-2.730666 6.826667v2.56l2.474666 2.261333 2.432 2.304-2.816 2.133333-2.773333 2.218667-0.64 3.157333c-0.341333 1.706667-1.749333 6.058667-3.157333 9.642667l-2.517334 6.442667-3.114666 3.413333c-1.706667 1.877333-3.84 3.413333-4.693334 3.413333h-1.536v-3.413333c0-1.92 0.938667-9.386667 2.133334-16.64l2.133333-13.184v-35.626667l-3.072-12.202666c-14.421333-57.386667-59.008-113.536-124.330667-156.629334a364.032 364.032 0 0 1-22.442666-15.786666l-5.76-4.821334L597.333333 247.722667l-5.034666-0.554667-12.288 1.621333c-38.826667 4.992-85.589333 28.928-107.477334 54.954667-1.749333 2.133333-5.674667 6.528-8.661333 9.813333-7.552 8.234667-8.704 9.898667-16.981333 24.490667l-7.338667 12.885333-0.170667 4.778667-0.213333 4.778667 3.84 0.682666c2.133333 0.384 9.514667 1.450667 16.384 2.346667l12.544 1.706667 9.002667 2.816 9.045333 2.816 5.12 3.328 5.162667 3.285333 2.432 4.181333 2.474666 4.181334v6.784l-2.005333 2.56-2.005333 2.517333h-2.133334c-1.152 0-6.570667-1.536-12.032-3.413333a191.573333 191.573333 0 0 0-36.949333-9.088l-7.424-0.725334-7.466667 0.725334-7.466666 0.725333-2.261334 2.730667a37.290667 37.290667 0 0 0-4.138666 6.613333l-1.834667 3.84v11.776l2.858667 4.010667a22.186667 22.186667 0 0 0 3.328 3.968c10.538667 0 33.578667 7.808 44.544 15.061333l7.893333 5.248 6.272 6.826667 6.272 6.912 3.968 7.808 3.925333 7.765333 1.024 6.954667 1.024 6.954666-0.64 3.498667-0.64 3.413333-1.450666-1.152c-2.090667-1.706667-3.242667-4.181333-4.821334-10.325333-2.346667-9.088-16-26.197333-20.906666-26.197333h-1.365334l2.432 6.485333 2.389334 6.528 0.128 8.192 0.085333 8.192-2.688 7.253333-2.645333 7.253334-4.181334 5.077333c-4.522667 5.546667-11.221333 10.410667-17.749333 12.970667l-4.138667 1.664-10.538666-0.64-10.538667-0.64-3.968 1.749333-3.925333 1.792-1.578667-1.024-1.621333-0.981333L411.946667 512l-0.298667-3.498667-2.048-1.450666-2.090667-1.450667-2.261333 2.133333a32.938667 32.938667 0 0 0-4.992 7.936 30.976 30.976 0 0 1-4.821333 7.68c-6.826667 6.144-13.482667 35.84-9.6 43.093334 0.597333 1.066667 1.877333 4.608 2.816 7.850666 2.645333 8.917333 6.826667 21.162667 7.808 22.784 3.285333 5.589333 5.674667 10.837333 5.674666 12.544 0 1.066667 1.066667 4.096 2.389334 6.698667l2.432 4.736-0.597334 1.493333c-1.194667 3.114667-10.368-0.853333-23.424-10.197333a24.533333 24.533333 0 0 0-6.485333-3.712h-1.28v5.461333l2.858667 4.266667c10.410667 15.530667 34.389333 34.688 57.685333 45.994667 6.528 3.2 12.714667 6.570667 13.738667 7.509333 2.858667 2.56 22.058667 10.325333 45.141333 18.261333l20.736 7.125334 10.112 1.450666c16 2.261333 37.546667 0.853333 45.738667-2.901333 1.621333-0.768 7.168-2.858667 12.373333-4.736a342.656 342.656 0 0 0 46.421333-22.4c5.290667-3.114667 10.24-5.973333 11.093334-6.272 3.498667-1.450667 30.805333-20.522667 38.997333-27.264 9.642667-7.936 23.466667-22.826667 33.536-36.224 3.413333-4.48 7.210667-8.618667 8.490667-9.216a15.104 15.104 0 0 0 4.693333-4.522667c2.858667-4.138667 4.010667-4.693333 7.253333-3.456 1.365333 0.512 3.84 0.938667 5.546667 0.938667 3.328 0.042667 8.192 2.261333 6.826667 3.114667a41.813333 41.813333 0 0 1-7.594667 1.194666c-3.712 0.341333-7.509333 0.853333-8.448 1.109334l-1.706667 0.469333v3.2c0 1.749333-1.109333 7.466667-2.474666 12.714667-6.144 23.253333-9.088 67.157333-6.101334 90.837333l0.981334 8.106667-1.237334 1.194666-1.28 1.28-25.514666 1.066667-25.514667 1.066667-11.093333-0.64c-9.216-0.512-49.365333-3.626667-76.8-5.973334l-6.954667-0.554666-0.64 1.706666c-1.066667 2.773333 1.28 32 3.413333 41.898667l1.877334 9.173333 3.328 7.253334c4.138667 8.96 8.192 14.549333 13.226666 18.176l3.84 2.816 3.669334-0.512 3.669333-0.469334 10.624 4.906667c5.802667 2.688 11.562667 4.906667 12.8 4.906667 1.194667 0 7.68 1.109333 14.336 2.474666 14.08 2.858667 37.333333 6.4 56.021333 8.533334 24.362667 2.773333 30.933333 5.205333 42.922667 15.786666l8.32 7.424 3.797333 6.229334c2.261333 3.712 4.693333 7.381333 7.125334 10.965333 5.205333 7.338667 4.992 7.637333-14.805334 21.504a406.016 406.016 0 0 1-165.162666 68.181333c-22.656 3.797333-28.032 3.626667-24.106667-0.682666a12.757333 12.757333 0 0 0 2.56-4.693334l0.597333-2.56-1.834666-2.304-1.877334-2.261333-1.706666 1.066667a17.066667 17.066667 0 0 0-3.925334 5.248 37.76 37.76 0 0 1-3.626666 5.76c-0.810667 0.853333-1.450667 2.048-1.450667 2.602666 0 2.474667-29.610667 4.608-49.109333 3.541334z m42.368-10.112c0-1.066667 0.853333-3.669333 1.962666-5.802667l2.005334-3.882667 4.053333-1.834666a21.333333 21.333333 0 0 1 5.717333-1.877334c1.962667 0 2.133333-1.066667 0.512-2.688l-1.152-1.152h-8.746666l-3.114667 1.877334a14.976 14.976 0 0 0-4.693333 4.949333l-1.578667 3.114667 0.512 3.712c0.768 5.802667 4.522667 8.789333 4.522667 3.584z m16.853333-38.442667c42.026667-4.608 61.781333-22.613333 65.578667-59.776l0.64-6.357333-1.194667-7.082667-1.194667-7.082667-2.56-2.346666a200.96 200.96 0 0 0-19.712-14.378667 101.76 101.76 0 0 1-9.216-6.741333 78.549333 78.549333 0 0 0-6.912-5.248 50.048 50.048 0 0 1-7.850666-8.192 62.976 62.976 0 0 0-9.301334-9.472 88.021333 88.021333 0 0 1-6.826666-5.546667c-1.578667-1.450667-3.413333-2.645333-4.096-2.645333-1.109333 0-8.234667-4.352-11.050667-6.698667a4.522667 4.522667 0 0 0-2.432-0.981333 8.362667 8.362667 0 0 1-3.456-1.578667 72.490667 72.490667 0 0 0-14.293333-7.082667 13.184 13.184 0 0 1-3.84-1.408 140.458667 140.458667 0 0 0-20.565334-7.466666 67.413333 67.413333 0 0 1-7.893333-1.450667l-6.4-1.493333-3.712 2.261333c-5.418667 3.328-14.506667 12.672-16.213333 16.597333a11.093333 11.093333 0 0 1-2.688 4.224 7.338667 7.338667 0 0 0-2.176 2.346667 36.48 36.48 0 0 1-3.84 4.864 56.874667 56.874667 0 0 0-5.717334 7.893333c-2.986667 5.12-20.736 23.168-28.032 28.501334-7.509333 5.546667-12.714667 10.88-14.336 14.762666l-1.536 3.626667 1.109334 4.053333c3.2 12.074667 22.357333 36.565333 38.954666 49.749334 8.149333 6.485333 16.469333 10.794667 30.293334 15.786666l12.074666 4.266667 10.581334 2.005333c5.845333 1.066667 11.52 2.176 12.544 2.389334 3.84 0.853333 36.821333 0.64 45.269333-0.298667z m-136.106667-415.829333c2.304-2.090667 2.218667-5.632-0.213333-8.021334-2.474667-2.474667-3.413333-2.432-6.272 0.426667-5.290667 5.290667 0.938667 12.586667 6.442667 7.594667z m117.333334 166.186666l-6.186667-0.896-5.802667-2.773333a35.968 35.968 0 0 1-8.661333-5.76l-2.858667-2.986667 1.109334-1.066666a16.938667 16.938667 0 0 1 4.778666-2.432l3.626667-1.28 11.221333 1.066666 11.178667 1.024 7.125333-0.938666c3.882667-0.512 8.618667-0.853333 10.453334-0.810667l3.328 0.128 0.341333-1.664 0.341333-1.706667h-3.498666c-1.92 0-6.4-0.426667-9.941334-0.938666a1011.498667 1011.498667 0 0 0-18.986666-2.474667c-22.954667-2.858667-44.544-9.386667-42.410667-12.885333l0.512-0.853334 5.546667 1.578667 5.546666 1.536h27.946667l5.290667-1.408 5.290666-1.365333 10.709334 0.128 10.709333 0.170666 3.072 1.536c1.664 0.853333 6.570667 2.517333 10.922667 3.626667l7.936 2.048 9.429333-0.042667 9.429333-0.085333-0.341333 1.066667c-0.554667 1.621333-6.570667 4.394667-14.293333 6.528-9.386667 2.602667-14.08 6.997333-8.32 7.808l2.133333 0.298666 0.341333 1.621334 0.298667 1.578666-2.901333 3.285334a31.829333 31.829333 0 0 1-8.021334 5.845333l-5.12 2.602667-12.501333-0.128a186.496 186.496 0 0 1-18.773333-0.981334z m137.386666-107.733333l-4.522666-2.901333-4.352 0.981333-4.352 0.981333-6.442667-0.981333a115.413333 115.413333 0 0 1-12.714667-2.858667l-6.272-1.877333-4.010666-4.138667a58.922667 58.922667 0 0 1-7.082667-9.386666l-3.072-5.248-1.450667-6.826667-1.450666-6.741333 0.64-8.448 0.597333-8.405334h-0.981333c-1.792 0-5.973333 7.466667-8.149334 14.549334-1.152 3.84-2.688 7.168-3.413333 7.424l-1.237333 0.426666 0.384-7.125333 0.384-7.125333 2.944-6.229334c7.381333-15.701333 25.6-30.762667 44.202666-36.565333l6.741334-2.133333 10.666666-0.554667 10.624-0.512 6.656 1.152a32.810667 32.810667 0 0 1 7.68 1.962667c0.554667 0.426667 2.56 1.450667 4.565334 2.261333l3.626666 1.536 2.773334-2.389333c1.578667-1.28 3.328-2.346667 3.968-2.346667h1.109333l-0.64 5.12-0.64 5.162667 7.210667 4.48c9.045333 5.674667 14.890667 8.32 18.261333 8.32l2.645333 0.042666v1.834667c0 2.816-3.754667 5.248-12.074666 7.850667l-7.466667 2.346666-1.194667 1.92a45.098667 45.098667 0 0 0-2.858666 8.96 33.706667 33.706667 0 0 1-3.328 9.130667 69.973333 69.973333 0 0 0-4.394667 7.210667c-1.493333 2.773333-3.114667 5.077333-3.626667 5.077333h-0.896l0.597334-1.578667c0.341333-0.853333 1.066667-3.498667 1.706666-5.888l1.066667-4.266666-0.554667-6.4a55.168 55.168 0 0 0-2.688-12.245334l-2.133333-5.76-2.858667-2.645333c-2.816-2.602667-9.813333-5.418667-10.922666-4.352a26.538667 26.538667 0 0 0 2.048 8.106667l2.56 7.509333-0.426667 10.112-0.426667 10.154667-2.133333 5.418666c-1.194667 2.986667-4.522667 8.533333-7.381333 12.330667l-5.162667 6.912 1.621333 0.554667c0.938667 0.341333 2.432 1.28 3.370667 2.048l1.706667 1.450666v5.504h-2.261334a18.346667 18.346667 0 0 1-6.741333-2.901333z m-28.757333-40.96l2.133333-1.536v-6.570667l-2.133333-1.962666c-2.645333-2.474667-5.973333-2.517333-8.448 0l-1.92 1.877333v6.656l2.133333 1.493333c1.152 0.853333 3.029333 1.493333 4.138667 1.493334a8.789333 8.789333 0 0 0 4.096-1.493334z m48.213333 38.613333a13.312 13.312 0 0 1-4.010666-3.84l-0.554667-1.493333 2.048-1.962667a8.746667 8.746667 0 0 1 2.645333-1.92c1.749333 0.085333 8.277333 4.693333 8.533334 6.058667l0.341333 1.706667-2.261333 1.877333c-2.816 2.346667-2.56 2.346667-6.698667-0.426667z m37.248-112.896c-9.984-6.016-18.048-8.96-34.688-12.586666l-6.741333-1.450667-15.872-0.128-15.914667-0.170667-12.16 2.645334a129.578667 129.578667 0 0 1-15.146666 2.645333h-2.986667l-1.962667-1.92-1.92-1.92V395.093333l2.133334-3.242666a32 32 0 0 1 15.488-11.093334l4.992-1.578666 12.074666-0.512 12.117334-0.469334 10.069333 1.706667c5.546667 0.853333 14.506667 2.901333 19.882667 4.394667l9.813333 2.730666 7.509333 4.48c7.850667 4.608 17.834667 12.288 23.210667 17.792l3.114667 3.2v2.517334c0 5.802667-4.778667 6.314667-13.013334 1.28z" fill="#C68878" p-id="30249"></path><path d="M478.677333 936.106667a414.250667 414.250667 0 0 1-135.765333-35.370667c-27.733333-12.373333-68.906667-37.632-68.906667-42.154667v-1.450666l7.296-4.736c4.010667-2.645333 28.288-15.232 53.930667-27.946667 25.6-12.8 47.786667-24.192 49.28-25.429333 1.493333-1.194667 4.266667-3.114667 6.144-4.266667 1.877333-1.109333 4.266667-2.986667 5.290667-4.096 3.584-3.968 12.928-7.466667 12.928-4.821333 0 0.469333-1.066667 2.133333-2.389334 3.712-3.328 3.968-4.352 7.168-4.352 13.696v5.674666l1.92 5.205334c6.4 16.938667 29.738667 44.8 46.976 55.978666 10.453333 6.741333 31.488 14.634667 46.506667 17.408l13.653333 2.56 5.461334 1.066667 19.072-0.64c59.648-1.962667 82.773333-18.56 86.613333-62.208l0.597333-7.253333-1.152-6.229334a52.053333 52.053333 0 0 0-16.853333-29.141333l-3.84-3.541333 2.986667-0.042667 2.986666-0.042667 8.96 4.437334 8.96 4.437333 6.314667 0.853333c3.498667 0.426667 10.666667 1.706667 15.957333 2.816 10.922667 2.304 21.248 3.84 43.861334 6.698667 21.973333 2.730667 31.402667 4.565333 37.546666 7.338667l5.205334 2.389333 5.418666 5.034667c2.986667 2.730667 6.485333 5.973333 7.893334 7.082666 1.365333 1.152 4.309333 5.034667 6.528 8.661334 2.304 3.84 4.736 7.594667 7.296 11.264l3.328 4.693333-1.024 1.834667c-2.133333 4.010667-31.146667 23.978667-51.968 35.754666-43.136 24.448-96.682667 42.410667-143.232 48.085334-10.88 1.28-11.861333 1.066667-9.557334-2.474667l1.578667-2.432v-4.394667c0-5.248-1.749333-8.96-5.845333-12.373333l-2.986667-2.56h-3.541333c-4.693333 0-9.813333 2.858667-12.074667 6.698667l-1.834667 3.072v7.722666l1.877334 2.517334a10.069333 10.069333 0 0 0 2.986666 2.901333l1.194667 0.384v-3.072c0-4.437333 2.602667-9.301333 6.229333-11.52 5.589333-3.456 7.68-2.133333 5.162667 3.285333l-1.109333 2.474667h-1.578667c-0.853333 0-2.517333 0.682667-3.712 1.493333l-2.133333 1.493334 0.256 3.925333 0.256 3.882667-4.352 1.322666-4.309334 1.322667-23.125333-0.128c-12.714667-0.042667-27.477333-0.426667-32.853333-0.853333z m48.213334-225.28l-6.741334-0.554667-3.712-3.370667a46.72 46.72 0 0 0-5.034666-4.138666c-4.565333-2.56 0.469333-3.328 7.68-1.152 4.608 1.408 8.490667 1.877333 22.144 2.858666a23.893333 23.893333 0 0 1 7.765333 1.450667c0.64 0.512 1.536 0.64 1.962667 0.256l0.810666-0.725333-0.682666 1.152-0.64 1.152 1.962666-0.170667 1.962667-0.128-0.426667-1.194667-0.469333-1.194666 1.322667 0.512 1.365333 0.512-0.768 2.133333-0.810667 2.048h-1.792a6.997333 6.997333 0 0 0-2.986666 0.853333l-1.28 0.682667v-0.853333c0-0.426667-1.152-0.725333-2.602667-0.554667a95.189333 95.189333 0 0 1-19.029333 0.426667z m126.677333-4.010667c-10.282667-0.853333-20.565333-1.621333-30.848-2.304-27.52-1.962667-48.384-4.266667-49.536-5.376l-0.938667-0.896 1.408-1.28c0.768-0.682667 5.290667-2.688 10.069334-4.437333 26.026667-9.6 72.661333-36.906667 96.554666-56.533334 9.557333-7.850667 24.661333-24.192 34.133334-36.906666l5.845333-7.808 2.261333-0.554667a7.594667 7.594667 0 0 1 3.754667 0l1.450667 0.512v2.688c0 1.493333-0.853333 5.973333-1.962667 9.898667a262.101333 262.101333 0 0 0-3.925333 19.285333l-1.962667 12.032-0.853333 23.594667-0.768 23.594666 0.853333 6.741334c0.469333 3.712 0.853333 8.832 0.853333 11.349333l0.085334 4.565333-1.237334 0.128c-4.266667 0.426667-53.76 2.816-55.125333 2.602667l-10.112-0.896z m-310.186667-9.088a286.549333 286.549333 0 0 1-16.853333-3.328 397.781333 397.781333 0 0 0-19.498667-3.84c-12.586667-2.176-20.096-3.712-41.216-8.362667l-15.36-3.413333-3.882666-2.090667-3.84-2.048-2.858667-8.192-2.858667-8.192-0.170666-19.285333a1083.562667 1083.562667 0 0 0-3.370667-72.234667 797.226667 797.226667 0 0 1-3.157333-73.685333l-0.085334-29.397333 1.706667-15.402667c2.901333-25.856 4.437333-35.114667 8.021333-48.170667 1.877333-6.869333 4.693333-17.28 6.186667-23.125333 1.493333-5.845333 4.693333-16.896 7.168-24.576 1.877333-5.76 3.669333-11.52 5.504-17.322667 0.554667-1.834667 2.432-6.826667 4.224-11.093333 2.261333-5.546667 4.522667-11.178667 6.698667-16.810667 2.218667-5.717333 4.608-11.349333 7.253333-16.896 2.005333-4.224 5.162667-11.818667 7.04-16.853333 13.866667-37.802667 28.757333-63.445333 50.432-87.082667 8.192-8.96 8.192-8.789333-0.170667-6.613333l-6.485333 1.706667-1.365333-1.877334c-2.986667-4.138667-0.042667-8.618667 16.597333-25.173333 18.901333-18.773333 38.272-32.554667 63.488-45.226667l16-8.106666 15.104-4.949334 15.061333-4.906666 12.032-1.92 12.074667-1.877334 27.946667 0.426667 27.904 0.426667 10.624 2.986666 10.581333 2.986667 12.501333 6.229333 12.544 6.272 8.192 6.826667 11.392 9.685333c3.925333 3.413333 3.626667 3.413333 10.496 0.256l5.546667-2.56 9.856-0.426666c12.586667-0.554667 13.226667-0.426667 21.802667 6.485333l7.253333 5.717333 0.298667 2.218667 0.298666 2.218667 18.304 9.130666 18.304 9.173334 6.741334 4.992 10.112 7.552c22.272 16.597333 45.738667 51.242667 51.498666 76.117333l1.493334 6.314667 0.384 13.226666 0.384 13.141334 1.92 5.802666c1.066667 3.157333 4.181333 11.605333 6.912 18.773334 5.546667 14.506667 11.605333 37.376 14.208 53.461333l1.706666 10.581333V423.253333l-1.237333 5.674667c-1.578667 7.68-7.893333 24.746667-12.117333 32.725333l-3.498667 6.528 0.085333 3.541334c0.213333 7.424-6.826667 26.922667-11.093333 30.976l-2.261333 2.133333-0.682667-1.066667c-0.341333-0.597333 0.512-9.6 1.962667-20.053333l2.56-19.029333-0.469334-15.914667-0.469333-15.872-3.029333-10.410667c-17.322667-59.648-59.136-111.189333-125.866667-155.093333a369.024 369.024 0 0 1-21.077333-14.72l-5.546667-4.565333-4.48-0.853334-4.48-0.853333-14.421333 1.109333-14.506667 1.066667-11.093333 2.730667-11.093334 2.730666-13.44 5.76a238.506667 238.506667 0 0 0-42.965333 23.466667l-11.221333 7.552-9.898667 10.325333c-8.533333 8.96-13.824 15.317333-22.528 27.136a86.784 86.784 0 0 1-4.437333 5.376c-4.053333 4.565333-9.685333 14.933333-11.178667 20.693334l-1.408 5.290666 1.578667 1.152c0.853333 0.64 4.906667 1.408 8.96 1.706667 4.053333 0.298667 13.653333 1.237333 21.333333 2.133333l13.994667 1.536 7.68 2.389334c16.725333 5.162667 25.472 13.056 24.405333 21.973333l-0.298667 2.688-2.474666 1.834667-2.474667 1.834666-6.656-2.517333a345.258667 345.258667 0 0 0-20.650667-6.442667l-13.994666-3.968-16.853334-0.426666-16.853333-0.426667-4.053333 1.066667a21.376 21.376 0 0 0-6.912 3.498666l-2.858667 2.389334-1.493333 4.565333c-0.853333 2.517333-1.962667 6.869333-2.474667 9.728l-0.981333 5.205333 1.152 3.84 1.109333 3.797334 2.005333 1.237333 2.005334 1.28 8.149333 0.597333c20.181333 1.536 32.042667 4.352 43.605333 10.325334l7.936 4.096 9.642667 9.685333 9.685333 9.685333 3.712 7.594667 3.712 7.594667 0.981334 6.997333c0.512 3.84 0.682667 7.765333 0.298666 8.704l-0.64 1.706667-1.408-1.408a21.333333 21.333333 0 0 1-2.858666-6.954667c-2.645333-10.282667-9.642667-19.498667-20.010667-26.453333-4.608-3.072-5.418667-2.218667-2.901333 2.986666 1.109333 2.261333 2.56 6.698667 3.2 9.813334l1.194666 5.76-0.597333 6.997333-0.597333 6.954667-2.816 6.229333a39.893333 39.893333 0 0 1-23.594667 22.314667l-4.48 1.536-9.557333-1.109334-9.6-1.109333-3.84 1.152-3.84 1.152-1.493334-1.194667a4.437333 4.437333 0 0 1-1.493333-2.986666v-1.706667l-5.162667-4.949333-5.205333-4.949334-3.2-6.912-3.2-6.954666v-10.112c0.042667-5.546667 0.554667-11.733333 1.109333-13.738667 1.194667-4.053333 0.256-4.693333-1.92-1.408-2.56 3.84-4.266667 14.464-4.48 26.922667l-0.085333 7.466666h-1.024a25.770667 25.770667 0 0 1-6.058667-5.034666l-5.034666-5.077334-3.84-9.386666c-4.010667-9.856-4.693333-10.709333-5.589334-7.210667-1.066667 3.925333-0.64 8.149333 1.706667 17.237333 1.322667 4.949333 2.858667 13.312 3.498667 18.517334l1.066666 9.514666-1.152 13.952-1.194666 13.952 0.554666 10.752 0.554667 10.709334 2.005333 6.741333c5.034667 16.725333 7.253333 26.752 6.912 31.061333-0.085333 0.64-1.237333 1.877333-2.56 2.773334l-2.432 1.578666-3.754666-1.706666-3.712-1.664-1.194667 0.725333-1.152 0.725333 0.512 3.626667 0.469333 3.669333 3.2 4.693334c12.416 18.218667 36.181333 37.717333 61.226667 50.218666l11.690667 5.845334 1.962666 2.474666 1.962667 2.517334-0.554667 5.504a19.626667 19.626667 0 0 1-1.621333 6.826666l-1.024 1.322667-19.285333-0.682667c-10.624-0.384-22.613333-1.066667-26.666667-1.536a507.306667 507.306667 0 0 0-26.709333-1.493333l-19.370667-0.682667-0.128 1.322667a169.258667 169.258667 0 0 0-0.256 7.125333l-0.085333 5.76-1.450667 0.170667c-0.810667 0.128-5.12-0.426667-9.642667-1.109333z m76.586667-224l1.749333-1.877333v-6.058667l-1.792-1.28a7.893333 7.893333 0 0 0-3.968-1.322667H413.866667l-1.536 2.133334c-4.437333 6.357333 2.56 14.08 7.68 8.448z m143.018667 142.506667c-27.050667-1.28-62.250667-6.570667-59.605334-8.96 0.768-0.64 58.368 2.304 66.346667 3.413333 4.522667 0.597333 12.885333 1.152 18.602667 1.194667l10.410666 0.085333-1.536 1.109333c-1.578667 1.152-10.325333 2.901333-17.322666 3.498667-2.133333 0.170667-9.728 0-16.896-0.341333z m112.682666-86.144l-1.237333-1.493334 1.024-1.024 1.024-1.024 2.005333 0.682667 2.048 0.64v3.712h-1.792a4.565333 4.565333 0 0 1-3.072-1.493333z m-26.88-2.432A88.746667 88.746667 0 0 1 640 525.226667l-4.565333-1.493334-4.352-4.650666a42.069333 42.069333 0 0 1-10.282667-19.242667l-1.237333-5.248 0.64-11.093333 0.64-11.093334-2.944 2.773334c-2.901333 2.773333-8.661333 13.098667-8.661334 15.530666a2.56 2.56 0 0 1-1.109333 1.92l-1.109333 0.682667 0.597333-4.992 0.597333-4.992 2.858667-6.058667 2.901333-6.058666 5.845334-6.357334c10.069333-10.965333 23.424-19.669333 36.138666-23.552l5.802667-1.706666h13.952l13.952-0.042667 6.997333 3.285333 6.997334 3.242667 2.645333-1.28c1.450667-0.768 3.029333-1.536 3.498667-1.706667l0.853333-0.426666-0.512 3.456-0.597333 3.456 2.688 2.218666c6.229333 5.12 19.626667 12.288 22.912 12.288 6.186667 0 1.365333 4.778667-7.893334 7.765334a33.28 33.28 0 0 0-8.405333 3.712l-1.706667 1.578666-1.92 7.594667c-2.005333 7.893333-3.242667 10.197333-5.376 10.197333h-1.28l-0.597333-4.565333c-1.024-7.893333-4.138667-17.066667-7.253333-21.333333l-2.901334-4.053334-7.338666-3.328a139.008 139.008 0 0 0-7.594667-3.328c-0.213333 0 1.450667 3.669333 3.584 8.149334l3.925333 8.192 1.024 7.125333 1.024 7.125333-1.194666 6.784c-1.621333 8.96-5.461333 16.853333-11.52 23.466667l-4.949334 5.418667-4.352 2.048-4.309333 2.005333-6.528-0.085333a76.373333 76.373333 0 0 1-10.752-0.938667z m-3.968-36.010667c4.437333-2.304 5.162667-6.4 1.92-10.496l-2.005333-2.56h-6.528l-1.962667 2.133333-1.962666 2.090667v2.56c0 5.632 5.461333 8.874667 10.538666 6.272z m48.469334 34.986667c-2.986667-2.986667-0.512-5.418667 3.712-3.669334l2.901333 1.194667-0.298667 1.536-0.298666 1.536-2.432 0.298667c-1.28 0.128-2.944-0.256-3.584-0.938667z m-302.122667-17.792c-1.664-4.266667 1.152-8.32 5.717333-8.32h2.56l2.005334 1.962666 1.962666 2.005334-1.28 1.578666c-3.2 3.84-9.898667 5.546667-10.965333 2.816z m342.826667-93.013334c-13.269333-8.746667-33.024-14.506667-56.96-16.725333l-6.826667-0.64-7.594667 1.109333a358.826667 358.826667 0 0 0-17.237333 3.114667 197.546667 197.546667 0 0 1-13.738667 2.474667l-4.138666 0.426666-1.536-1.28-1.493334-1.28 0.426667-4.650666 0.426667-4.693334 3.797333-3.84a30.634667 30.634667 0 0 1 16.938667-9.002666l6.058666-1.450667h19.541334l10.922666 1.877333c23.296 4.010667 34.090667 8.832 50.432 22.442667l9.173334 7.594667 0.554666 2.304c1.194667 4.608-3.413333 5.802667-8.746666 2.261333z" fill="#A66A5D" p-id="30250"></path><path d="M498.005333 936.533333c-61.610667-3.114667-114.048-16.213333-164.736-41.130666-21.674667-10.666667-51.925333-28.970667-56.789333-34.346667l-1.706667-1.834667 0.725334-1.109333c2.218667-3.626667 25.6-16 38.272-20.266667 3.114667-1.066667 7.466667-3.072 9.642666-4.437333 2.218667-1.408 11.605333-6.229333 20.906667-10.837333a278.186667 278.186667 0 0 0 20.010667-10.496c1.706667-1.237333 6.314667-3.712 10.197333-5.504a37.290667 37.290667 0 0 0 8.448-4.906667 36.437333 36.437333 0 0 1 6.186667-4.693333c2.645333-1.706667 6.698667-4.693333 8.96-6.613334 2.304-1.92 5.077333-3.498667 6.144-3.498666h1.92l-2.517334 2.986666c-3.242667 3.84-3.797333 6.357333-3.242666 14.421334l0.512 6.613333 3.84 7.978667a128.256 128.256 0 0 0 91.904 69.589333c4.437333 0.853333 10.154667 1.92 12.714666 2.474667 2.56 0.512 12.714667 0.896 22.613334 0.896h18.005333l9.130667-1.365334c42.282667-6.101333 62.08-25.728 64.256-63.616l0.512-8.661333-1.066667-5.76a59.562667 59.562667 0 0 0-3.925333-11.818667l-2.816-6.058666-5.034667-5.290667-4.992-5.290667h1.493333c0.853333 0 5.205333 1.962667 9.728 4.352l8.192 4.309334h3.2c1.749333 0 7.296 0.896 12.373334 2.005333 13.610667 2.858667 48.042667 8.32 60.672 9.557333 22.784 2.304 27.733333 4.181333 39.594666 15.018667l8.106667 7.424 3.413333 5.888c1.877333 3.242667 4.821333 7.765333 6.485334 10.112a16.64 16.64 0 0 1 3.072 5.973333v1.706667l-4.096 3.285333c-49.493333 39.68-129.962667 72.96-191.914667 79.317334l-6.570667 0.682666 0.682667-2.346666c0.384-1.28 0.938667-3.84 1.237333-5.802667l0.512-3.498667-1.066666-3.328a19.754667 19.754667 0 0 0-4.394667-6.485333l-3.242667-3.157333-4.224-0.469334-4.181333-0.469333-3.456 1.450667a18.005333 18.005333 0 0 0-6.101333 4.864l-2.645334 3.456 0.042667 4.906666 0.042667 4.906667 2.048 3.456 2.005333 3.413333-0.768 0.768c-0.853333 0.853333-28.330667 1.792-38.314667 1.28z m157.952-230.784c-47.445333-2.944-79.104-5.802667-80.64-7.338666l-0.768-0.810667 8.192-3.114667c26.88-10.197333 75.264-38.485333 97.194667-56.832a247.466667 247.466667 0 0 0 33.237333-35.114666l7.936-10.24h5.674667v2.133333c0 1.237333-0.853333 5.290667-1.92 9.088-1.024 3.754667-2.986667 13.482667-4.266667 21.632l-2.346666 14.805333-0.256 22.186667c-0.128 12.16 0.085333 26.581333 0.512 32l0.810666 9.856-1.322666 0.170667a330.666667 330.666667 0 0 1-26.88 1.28c-11.392 0.298667-21.333333 0.682667-22.144 0.810666a180.992 180.992 0 0 1-13.013334-0.512z m-314.752-9.514666a329.088 329.088 0 0 1-17.792-3.626667 220.885333 220.885333 0 0 0-14.72-2.986667c-8.96-1.450667-31.061333-6.058667-43.690666-9.088l-9.472-2.304-2.56-1.877333-2.56-1.92-0.256-2.304a55.765333 55.765333 0 0 0-2.304-8.106667l-2.048-5.76 0.64-22.869333 0.682666-22.869333-0.981333-6.016c-1.493333-8.874667-2.986667-26.026667-3.925333-44.117334a216.533333 216.533333 0 0 0-1.877334-21.162666 153.002667 153.002667 0 0 1-1.536-18.346667 7965.866667 7965.866667 0 0 0-0.853333-25.514667c-0.725333-20.437333 2.432-58.624 6.741333-81.365333 4.181333-22.186667 5.12-26.453333 7.936-36.138667 1.749333-6.058667 3.413333-12.16 4.949334-18.304 1.194667-4.778667 4.693333-15.146667 7.808-23.125333 3.072-7.936 6.912-18.389333 8.533333-23.210667a157.013333 157.013333 0 0 1 5.333333-13.994666c2.730667-5.717333 9.130667-22.613333 12.544-33.109334 3.072-9.386667 10.112-25.856 16.64-38.997333l5.504-11.093333 8.874667-12.501334 8.832-12.544 12.373333-12.117333c6.826667-6.656 13.44-12.714667 14.762667-13.397333 4.778667-2.517333 17.365333-13.141333 17.365333-14.634667 0-1.706667-3.285333-0.597333-10.410666 3.541333l-7.424 4.309334-4.565334 0.64-4.565333 0.597333-1.450667-1.194667a5.248 5.248 0 0 1-1.450666-3.584v-2.389333l6.485333-6.784c13.226667-13.738667 29.482667-25.130667 52.778667-36.906667l17.408-8.789333 15.402666-4.992 15.445334-5.034667 12.373333-1.877333 12.373333-1.92 21.248 0.042667c24.789333 0.042667 31.104 0.725333 45.44 4.821333l10.538667 3.072 11.093333 5.632 11.093334 5.674667 9.130666 7.296c5.034667 4.010667 11.605333 9.898667 14.634667 13.056 2.986667 3.114667 6.101333 5.717333 6.826667 5.717333 0.810667 0 1.962667 0.64 2.645333 1.450667 1.536 1.877333 4.266667 1.834667 5.888-0.128l1.28-1.578667-4.181333-3.584-4.138667-3.626667 2.56-2.005333c3.413333-2.688 7.68-3.413333 16.981333-2.858667l7.68 0.426667 5.290667 5.248 5.290667 5.205333-0.512 2.133334-0.554667 2.176 5.077333 2.346666c2.773333 1.28 11.136 5.12 18.56 8.405334l13.482667 6.058666 7.253333 5.034667 12.458667 8.704c22.528 15.573333 45.013333 47.872 51.114667 73.514667l1.28 5.290666-0.341334 6.272c-0.213333 4.48-0.341333 8.96-0.384 13.482667v7.210667l4.608 9.642666c16.64 34.56 23.893333 65.109333 25.173334 106.453334l0.597333 19.712-1.450667 10.666666-1.450666 10.666667-3.84 11.946667c-2.176 6.613333-5.461333 15.061333-7.338667 18.773333a35.328 35.328 0 0 0-3.413333 8.661333c0 6.485333-8.32 30.293333-10.581334 30.293334h-1.066666l0.554666-4.053334c1.792-13.226667 3.413333-29.866667 3.925334-41.173333l0.597333-13.013333-1.536-7.381334c-13.141333-62.634667-56.405333-118.997333-128.170667-166.954666a463.616 463.616 0 0 1-22.613333-15.829334 53.930667 53.930667 0 0 0-6.698667-4.864l-2.304-1.237333-18.858666 0.597333c-29.866667 0.896-36.096 2.261333-64.64 13.824a173.482667 173.482667 0 0 0-35.456 19.84c-2.986667 2.304-9.6 6.912-14.634667 10.282667-15.872 10.581333-41.216 37.248-48.426667 50.901333l-4.394666 8.362667a26.496 26.496 0 0 0-1.92 8.362667l-0.426667 5.461333 3.285333 0.512c1.792 0.256 10.666667 0.725333 19.712 1.024l16.512 0.597333 10.666667 1.792 10.752 1.792 6.144 2.858667c6.016 2.816 17.322667 9.258667 21.546667 12.245333l2.176 1.536v7.552l-1.877334 1.024-1.877333 0.981334-6.4-2.389334a345.173333 345.173333 0 0 0-36.053333-10.154666 185.429333 185.429333 0 0 0-21.674667-1.066667l-16.384-0.085333-9.173333 1.706666c-5.034667 0.853333-10.24 2.218667-11.648 2.901334-5.162667 2.645333-11.52 13.354667-14.250667 24.021333-1.066667 4.266667-3.029333 10.410667-4.394667 13.696a61.269333 61.269333 0 0 0-2.432 6.613333c0 1.877333 20.053333-3.328 20.266667-5.205333 0.810667-7.68 1.237333-8.064 4.778667-4.181333l2.816 3.114666 2.218666-0.469333a111.36 111.36 0 0 1 8.448-1.066667l6.314667-0.554666 8.618667 1.024c24.746667 2.901333 36.949333 8.576 52.352 24.234666l6.016 6.144 4.266666 8.661334 4.309334 8.661333 0.469333 6.272 0.469333 6.272-1.749333-5.290667c-3.925333-11.776-9.813333-19.157333-21.76-27.093333l-5.845333-3.925333-0.298667 1.450666a16.213333 16.213333 0 0 0 2.048 6.101334c7.850667 15.616 5.290667 34.133333-6.570667 47.317333l-4.48 4.992-5.973333 2.901333-5.930667 2.944-15.36-0.426666-15.36-0.341334-0.426666-1.28a44.842667 44.842667 0 0 0-5.973334-7.168 35.968 35.968 0 0 1-10.538666-18.602666l-1.237334-5.12 0.512-7.381334a36.437333 36.437333 0 0 1 6.485334-20.608c4.693333-7.850667 4.736-7.466667-0.256-7.466666h-4.096l-3.584 2.389333-3.584 2.432-3.84 7.936c-2.090667 4.352-4.565333 10.752-5.461334 14.208a35.754667 35.754667 0 0 1-2.432 7.125333l-0.768 0.896-2.602666-5.717333-2.56-5.674667-1.066667-8.192-1.066667-8.192-4.010666-0.298666-4.053334-0.298667-1.408 2.218667c-6.613333 10.581333-7.552 74.325333-1.493333 107.221333l1.92 10.581333-0.298667 6.272-0.256 6.272-2.176 0.298667a4.949333 4.949333 0 0 0-3.242666 2.304l-1.066667 2.005333 0.469333 3.754667 0.512 3.754667 4.096 6.954666c5.76 9.728 14.549333 20.053333 28.16 32.981334l11.776 11.093333 9.344 6.229333c5.12 3.413333 15.018667 9.088 21.888 12.586667l12.586667 6.4 0.597333 2.389333a26.368 26.368 0 0 1-0.213333 7.850667l-0.853333 5.418667-16.896-0.298667a356.138667 356.138667 0 0 1-25.045334-1.237333 483.029333 483.029333 0 0 0-28.501333-1.536l-20.309333-0.597334-0.853334 1.365334a20.693333 20.693333 0 0 0-0.853333 7.04v5.674666l-0.981333 0.256a92.8 92.8 0 0 1-11.306667-1.578666z m80.213334-222.72l1.962666-3.114667-0.597333-2.389333c-0.853333-3.498667-3.242667-5.802667-6.016-5.802667H414.293333l-2.218666 2.133333-2.218667 2.090667v7.253333l2.133333 1.493334c1.194667 0.853333 3.370667 1.493333 4.821334 1.493333h2.688l1.962666-3.114667z m231.68 53.589333a703.232 703.232 0 0 1-8.661334-1.962667l-6.698666-1.578666-4.693334-4.394667c-10.026667-9.386667-15.530667-28.629333-11.392-39.765333 0.426667-1.28 1.109333-3.84 1.493334-5.845334l0.64-3.626666h-1.450667c-0.810667 0-3.072 1.408-4.992 3.114666l-3.541333 3.114667 1.706666-3.328c8.32-16.085333 33.024-30.506667 55.125334-32.213333l7.936-0.597334 6.528 1.024c3.584 0.597333 9.344 2.304 12.8 3.84a26.88 26.88 0 0 0 8.149333 2.645334l1.962667-0.256 0.256 1.962666 0.298666 1.92 9.344 6.058667c5.12 3.328 11.178667 6.570667 13.44 7.168 6.4 1.749333 5.290667 3.2-5.034666 6.528-8.661333 2.816-9.642667 3.84-11.946667 12.373333-2.730667 9.856-4.181333 10.496-5.376 2.346667a58.24 58.24 0 0 0-2.645333-9.685333l-1.92-5.162667-5.930667-6.656-5.930667-6.656-5.76-1.92c-5.632-1.834667-8.234667-2.346667-10.965333-2.133333l-1.28 0.128 4.693333 5.12c5.802667 6.4 9.514667 13.824 10.922667 22.058666l1.109333 6.357334-1.109333 7.552-1.152 7.552-3.370667 6.442666a37.546667 37.546667 0 0 1-16.128 16.725334l-4.778666 2.389333-4.864-0.128a52.48 52.48 0 0 1-6.826667-0.512z m-5.546667-36.565333l2.133333-2.389334v-2.730666a9.216 9.216 0 0 0-6.656-8.277334l-2.816-0.597333-2.261333 1.194667c-6.272 3.328-6.528 12.202667-0.384 14.933333l2.986667 1.28 2.432-0.469333a10.282667 10.282667 0 0 0 4.565333-2.944z" fill="#47332F" p-id="30251"></path></svg>