<?xml version="1.0" standalone="no"?><!DOCTYPE svg PUBLIC "-//W3C//DTD SVG 1.1//EN" "http://www.w3.org/Graphics/SVG/1.1/DTD/svg11.dtd"><svg t="1775136105620" class="icon" viewBox="0 0 2080 1024" version="1.1" xmlns="http://www.w3.org/2000/svg" p-id="21408" xmlns:xlink="http://www.w3.org/1999/xlink" width="406.25" height="200"><path d="M311.148936 923.778723c-4.221277-0.817021-8.306383-2.178723-9.123404-2.995744-2.042553-2.042553-0.27234-5.719149 2.859574-5.719149 1.361702 0 2.995745-1.089362 3.540426-2.314894 0.544681-1.361702 2.723404-16.204255 4.902128-33.089362 3.676596-28.731915 5.174468-36.085106 11.846808-58.689361 1.497872-4.902128 3.812766-16.612766 5.038298-25.872341 6.808511-49.702128 7.489362-53.242553 11.029787-61.004255 1.906383-4.357447 5.582979-10.076596 8.306383-12.52766l4.629787-4.629787 34.723405 0.544681 34.587234 0.408511 4.493617-4.493617c2.995745-2.995745 4.902128-6.53617 5.582978-10.076596 0.544681-2.995745 2.451064-11.302128 4.221277-18.382979 2.859574-11.029787 6.808511-33.770213 13.07234-74.212766 0.817021-5.174468 3.268085-16.612766 5.446809-25.191489 3.676596-14.978723 9.531915-48.068085 11.438298-64 1.634043-14.161702 4.902128-30.365957 8.306383-40.714894 3.404255-10.212766 8.306383-40.578723 11.438298-70.26383 1.089362-9.259574 3.404255-20.561702 6.263829-29.821276 5.174468-16.476596 10.348936-46.570213 12.936171-74.348936 1.634043-18.92766 2.314894-22.331915 9.259574-49.157447 2.178723-8.578723 4.765957-20.834043 5.582979-27.234043 3.540426-27.778723 7.353191-48.476596 13.07234-71.353191 4.629787-18.110638 6.12766-27.097872 6.12766-34.451064 0-8.851064 0.27234-10.076596 3.131915-11.846808 2.859574-1.906383 18.92766-2.178723 140.527659-2.042554 75.438298 0 139.574468 0.408511 142.434043 0.817022 7.353191 1.225532 8.714894 3.540426 5.991489 9.395744-1.361702 2.723404-2.859574 10.212766-3.540425 16.748936-1.770213 15.795745-4.765957 31.319149-8.714894 43.846809-6.26383 19.608511-10.621277 48.476596-13.07234 85.106383-1.225532 19.744681-2.042553 24.102128-7.897873 42.893617-3.676596 11.710638-6.53617 27.642553-9.123404 51.744681-4.221277 38.944681-4.765957 43.302128-7.489362 51.2-5.038298 14.297872-6.808511 23.285106-11.574468 55.829787-2.587234 17.702128-7.080851 43.165957-10.076595 56.782979s-7.080851 36.085106-8.987234 49.974468-5.310638 31.591489-7.489362 39.625532c-2.314894 7.897872-4.629787 17.702128-5.446809 21.787234-2.314894 11.574468-6.53617 46.570213-8.170212 65.225532-1.361702 17.702128-3.404255 27.914894-8.034043 41.123404-1.497872 4.221277-3.676596 14.025532-4.902128 21.787234-8.987234 57.46383-8.714894 56.374468-21.514893 82.519149-12.255319 24.782979-19.33617 34.723404-38.808511 54.604255-17.702128 18.110638-20.153191 19.744681-32.817021 22.195745-10.893617 1.906383-304.068085 2.178723-314.008511 0.27234zM805.038298 923.778723c-5.446809-0.817021-10.621277-2.178723-11.438298-2.995744-2.178723-2.178723-3.268085-192.680851-1.225532-198.12766 2.178723-5.719149 7.080851-7.761702 27.642553-11.982979 20.017021-3.948936 41.668085-10.076596 52.153192-14.706383 3.131915-1.361702 10.076596-5.310638 15.114893-8.714893 5.174468-3.268085 11.574468-7.080851 14.161703-8.442553 12.66383-6.4 37.855319-26.825532 50.655319-41.123405 28.868085-32.13617 35.131915-40.442553 35.131915-46.978723 0-6.67234-2.587234-7.080851-44.936171-7.489362-60.323404-0.544681-70.67234-1.497872-72.851063-6.944681-4.902128-12.93617-1.089362-160.27234 5.719148-216.102127 1.089362-9.668085 2.451064-24.782979 2.995745-33.361702 0.953191-17.021277 2.859574-22.331915 9.940426-27.642554 3.540426-2.587234 5.446809-2.723404 96-2.178723 131.948936 0.817021 120.238298 0.953191 125.004255-2.042553 3.676596-2.451064 15.659574-14.706383 37.446808-38.26383 31.182979-33.770213 43.982979-47.931915 61.276596-67.131915 10.893617-12.255319 25.191489-28.051064 31.72766-35.404255 6.67234-7.217021 16.340426-18.92766 21.651064-25.872341 5.174468-6.944681 11.438298-13.617021 13.753191-14.706383 3.812766-2.042553 19.47234-2.178723 159.86383-2.042553 150.059574 0 156.051064 0.13617 161.634042 2.723405 4.902128 2.042553 5.991489 3.268085 6.672341 7.217021 0.953191 6.26383 14.161702 29.140426 31.86383 55.285106 3.948936 5.719149 9.395745 14.706383 12.255319 19.880851 2.859574 5.038298 8.306383 13.344681 12.119149 18.382979 3.812766 4.902128 9.123404 12.66383 11.710638 17.157447 9.940426 16.748936 20.970213 34.314894 25.73617 40.851064 2.723404 3.812766 6.67234 10.212766 8.714894 14.297872 5.310638 10.621277 17.702128 26.825532 22.468085 29.276596 3.540426 1.906383 20.289362 2.042553 141.753191 2.042553 154.417021-0.13617 143.251064-0.817021 144.476596 9.804255 1.634043 14.297872-4.085106 162.451064-7.217021 188.323404-1.497872 12.8-3.404255 19.06383-6.944681 24.238298-5.446809 7.625532-4.221277 7.489362-82.246808 8.442554-39.625532 0.408511-86.331915 1.361702-103.761703 2.042553s-37.991489 0.817021-45.617021 0.40851c-17.565957-0.953191-21.787234 0.680851-24.238298 9.531915-2.314894 8.578723 0.27234 18.110638 7.761702 28.323404 3.404255 4.493617 10.757447 15.387234 16.476596 24.102128 10.893617 17.021277 29.821277 37.038298 53.923404 57.46383 26.825532 22.740426 55.557447 38.26383 87.012766 46.978723 9.259574 2.587234 21.106383 6.12766 26.280851 8.170213 5.310638 1.906383 15.387234 4.357447 22.468086 5.446809s16.748936 2.995745 21.514893 4.221276c13.208511 3.404255 13.07234 2.995745 11.982979 39.080851-0.408511 16.612766-1.225532 50.110638-1.634043 74.485107s-1.225532 46.570213-1.906383 49.293617c-0.953191 4.493617-0.544681 8.034043 2.178724 19.063829 0.817021 3.404255 0.544681 3.676596-7.080851 5.174469-10.893617 2.314894-281.87234 2.451064-290.042553 0.13617-6.53617-1.770213-9.531915-4.357447-19.744681-17.157447-4.221277-5.174468-17.021277-18.382979-28.459575-29.276596-25.73617-24.510638-44.52766-47.387234-51.744681-63.182979-5.446809-11.710638-9.123404-15.795745-14.434042-15.795744-3.948936 0-14.434043 4.493617-16.612766 7.080851-0.953191 1.089362-3.404255 7.761702-5.582979 14.842553-4.357447 14.570213-10.485106 28.595745-16.885106 38.67234-7.353191 11.710638-31.72766 43.165957-40.714894 52.697873-14.025532 14.706383-3.131915 13.753191-151.557447 14.025532-135.761702 0.13617-138.212766 0-149.651064-6.672341-8.578723-5.038298-23.829787-20.425532-49.974468-50.519149-7.761702-8.851064-10.485106-13.480851-16.885106-27.914893-6.4-14.978723-15.251064-27.642553-21.514894-30.774468-7.353191-3.948936-8.851064-1.770213-13.20851 19.880851-1.497872 7.353191-3.948936 16.204255-5.446809 19.744681-5.038298 11.710638-29.004255 43.438298-46.025532 61.004255-15.659574 16.068085-6.4 14.978723-127.591489 15.114894-67.948936 0.13617-105.395745-0.408511-112.068085-1.361703z m552.578723-265.395744c2.178723-1.089362 6.4-5.582979 9.395745-9.940426 5.446809-7.897872 27.642553-30.365957 61.412766-62.229787 10.076596-9.531915 18.92766-18.246809 19.47234-19.2 0.680851-1.089362 6.808511-6.67234 13.617022-12.391489 14.297872-11.846809 19.33617-18.246809 20.561702-26.689362 0.953191-5.991489-1.361702-14.842553-5.446809-20.970213-3.131915-4.902128-21.923404-38.944681-30.910638-56.238298-4.493617-8.578723-10.621277-18.655319-13.617021-22.195744-3.812766-4.765957-6.808511-10.757447-10.348937-20.970213-5.991489-17.565957-9.259574-20.834043-17.565957-18.382979-8.442553 2.587234-13.753191 6.944681-24.646808 20.289362-5.719149 6.944681-13.753191 15.523404-17.974469 19.06383-8.578723 7.353191-32 31.72766-39.897872 41.804255-8.851064 11.029787-33.361702 34.723404-40.306383 39.080851-12.66383 7.761702-13.753191 22.468085-2.723404 34.451064 4.902128 5.174468 11.438298 16.204255 28.595745 47.114893 3.540426 6.4 8.578723 15.251064 11.302127 19.608511s5.991489 11.302128 7.080851 15.387234c3.540426 11.846809 8.578723 22.468085 13.344681 27.506383 6.808511 7.080851 11.846809 8.442553 18.655319 4.902128zM68.629787 660.017021c-2.587234-1.497872-2.451064-17.021277 0.13617-54.740425 2.042553-29.957447 4.085106-47.931915 6.12766-52.834043 0.953191-2.451064 1.225532-1.770213 1.361702 3.131915 0.13617 3.404255 0.680851 8.851064 1.225532 12.255319 0.953191 5.991489 1.089362 5.991489 2.587234 2.587234 0.680851-1.906383 1.770213-8.714894 2.178724-14.978723 0.544681-6.26383 1.497872-17.838298 2.178723-25.73617s1.906383-21.514894 2.723404-30.365958c0.953191-10.212766 3.404255-23.557447 6.808511-36.765957 5.991489-23.421277 7.353191-33.906383 9.531915-72.442553 1.634043-29.004255 4.493617-51.47234 7.761702-59.234043 1.089362-2.587234 3.540426-6.53617 5.582979-8.578723 8.170213-8.714894-0.817021-8.170213 141.20851-7.897873 130.314894 0.27234 140.119149 0.680851 145.429787 5.310639 3.676596 3.268085 2.859574 11.846809-2.451063 27.097872-4.902128 14.297872-8.714894 33.770213-12.25532 62.910638-2.995745 24.238298-4.493617 32.680851-8.987234 50.79149-4.085106 16.748936-9.940426 51.608511-11.574468 69.174468-0.408511 5.582979-2.995745 19.47234-5.582978 30.638298-5.310638 23.693617-10.621277 55.965957-12.66383 78.297872-1.634043 17.838298-2.723404 19.744681-12.66383 21.106383-8.987234 1.225532-266.485106 1.497872-268.66383 0.27234z" fill="#BD040C" p-id="21409"></path></svg>