<?xml version="1.0" standalone="no"?><!DOCTYPE svg PUBLIC "-//W3C//DTD SVG 1.1//EN" "http://www.w3.org/Graphics/SVG/1.1/DTD/svg11.dtd"><svg t="1766977983759" class="icon" viewBox="0 0 1024 1024" version="1.1" xmlns="http://www.w3.org/2000/svg" p-id="21492" xmlns:xlink="http://www.w3.org/1999/xlink" width="200" height="200"><path d="M175.023476 897.407956a512.050998 512.050998 0 0 0 674.143933 0c80.097497-81.568451-184.160245-371.588388-337.152464-487.135777-152.832224 115.552389-417.247961 405.536327-336.98947 487.135777z m476.16012-614.655792C757.840262 409.087216 970.511617 722.784413 910.415495 833.663948a511.69101 511.69101 0 0 0-38.751789-685.695572 13.399581 13.399581 0 0 0-3.487891-1.791944 35.477891 35.477891 0 0 0-11.999626-1.91994c-25.248211 0-84.704353 18.528421-205.023593 138.495672z m-495.263524-136.575732a19.50639 19.50639 0 0 0-3.679885 1.791944 511.741008 511.741008 0 0 0-38.687791 685.599575C53.776264 722.432424 266.255625 408.987219 372.976289 282.752164 252.656049 162.719915 193.103911 144.288491 167.919698 144.288491c-5.599825 0-9.499703 0.899972-11.999626 1.951939z m356.095873 5.343833S386.351872 78.015562 288.239938 74.497672c-38.527796-1.407956-62.048061 12.575607-64.897972 14.463548C314.864105 27.552139 412.144065 0 511.343966 0h0.671979C611.596833 0 708.493805 27.552139 800.690923 88.96022c-2.911909-1.951939-26.24018-15.871504-64.863973-14.463548-98.143933 3.487891-223.840005 76.767601-223.840005 76.767601z" fill="#107C10" p-id="21493"></path></svg>