<?xml version="1.0" standalone="no"?><!DOCTYPE svg PUBLIC "-//W3C//DTD SVG 1.1//EN" "http://www.w3.org/Graphics/SVG/1.1/DTD/svg11.dtd"><svg t="1775136448780" class="icon" viewBox="0 0 1024 1024" version="1.1" xmlns="http://www.w3.org/2000/svg" p-id="28921" xmlns:xlink="http://www.w3.org/1999/xlink" width="200" height="200"><path d="M658.285714 621.714286h365.714286v256a146.285714 146.285714 0 0 1-146.285714 146.285714h-219.428572V621.714286z" fill="#B2D8FF" p-id="28922"></path><path d="M1024 364.397714V218.624H0v145.773714z" fill="#FFFFFF" p-id="28923"></path><path d="M649.142857 1024h145.773714V0H649.142857z" fill="#FFFFFF" p-id="28924"></path><path d="M1024 729.417143v-145.773714H0v145.773714z" fill="#FFCF68" p-id="28925"></path><path d="M0 218.624h649.179429V0H146.285714a146.285714 146.285714 0 0 0-146.285714 146.285714v72.338286z" fill="#AFE881" p-id="28926"></path><path d="M195.803429 1024H341.577143V0H195.803429z" fill="#FFCF68" p-id="28927"></path><path d="M103.862857 543.670857L349.622857 618.057143l302.628572-256.950857-234.569143 276.772571 262.765714 81.188572 135.314286-520.192z" fill="#0093FD" p-id="28928"></path><path d="M652.251429 361.142857L349.586286 618.057143l68.096 19.821714z" fill="#0066BD" p-id="28929"></path><path d="M349.622857 618.093714v143.908572l97.938286-114.834286-97.974857-29.074286z" fill="#0064BB" p-id="28930"></path></svg>